ISO-10303-21;
HEADER;
FILE_DESCRIPTION(('Faceted enclosure export from case.3mf'),'2;1');
FILE_NAME('case.step','2026-07-21T00:00:00',(''),(''),'Digital ID Card V1','','');
FILE_SCHEMA(('AUTOMOTIVE_DESIGN_CC2'));
ENDSEC;
DATA;
#1=APPLICATION_CONTEXT('automotive design');
#2=APPLICATION_PROTOCOL_DEFINITION('international standard','automotive_design',2010,#1);
#3=PRODUCT_CONTEXT('',#1,'mechanical');
#4=PRODUCT('case','Digital ID Card V1 enclosure','',(#3));
#5=PRODUCT_DEFINITION_FORMATION('','',#4);
#6=PRODUCT_DEFINITION('design','',#5,#7);
#7=PRODUCT_DEFINITION_CONTEXT('part definition',#1,'design');
#8=PRODUCT_DEFINITION_SHAPE('','',#6);
#10=(GEOMETRIC_REPRESENTATION_CONTEXT(3) GLOBAL_UNCERTAINTY_ASSIGNED_CONTEXT((#11)) GLOBAL_UNIT_ASSIGNED_CONTEXT((#12,#13,#14)) REPRESENTATION_CONTEXT('Context','3D'));
#11=UNCERTAINTY_MEASURE_WITH_UNIT(LENGTH_MEASURE(1.E-6),#12,'distance_accuracy_value','');
#12=(LENGTH_UNIT() NAMED_UNIT(*) SI_UNIT(.MILLI.,.METRE.));
#13=(PLANE_ANGLE_UNIT() NAMED_UNIT(*) SI_UNIT($,.RADIAN.));
#14=(SOLID_ANGLE_UNIT() NAMED_UNIT(*) SI_UNIT($,.STERADIAN.));
#16=CARTESIAN_POINT('',(34.671748,2,-4));
#17=CARTESIAN_POINT('',(34.671748,5,-4));
#18=CARTESIAN_POINT('',(34.671748,2,0));
#19=CARTESIAN_POINT('',(34.671748,5,0));
#20=CARTESIAN_POINT('',(45.341748,2,0));
#21=CARTESIAN_POINT('',(45.341748,5,0));
#22=CARTESIAN_POINT('',(45.341748,2,-4));
#23=CARTESIAN_POINT('',(45.341748,5,-4));
#24=CARTESIAN_POINT('',(2.5,2,-4));
#25=CARTESIAN_POINT('',(2.5,5,-4));
#26=CARTESIAN_POINT('',(90.5,5,-4));
#27=CARTESIAN_POINT('',(90.5,2,-4));
#28=CARTESIAN_POINT('',(92,5,0));
#29=CARTESIAN_POINT('',(93.931856,5,-1.482361));
#30=CARTESIAN_POINT('',(93.732048,5,-1));
#31=CARTESIAN_POINT('',(93.414216,5,-0.585786));
#32=CARTESIAN_POINT('',(93,5,-0.267949));
#33=CARTESIAN_POINT('',(92.51764,5,-0.068148));
#34=CARTESIAN_POINT('',(94,5,-2));
#35=CARTESIAN_POINT('',(94,5,-61));
#36=CARTESIAN_POINT('',(90.5,5,-60));
#37=CARTESIAN_POINT('',(93.931856,5,-61.51764));
#38=CARTESIAN_POINT('',(93.732048,5,-62));
#39=CARTESIAN_POINT('',(93.414216,5,-62.414216));
#40=CARTESIAN_POINT('',(92,5,-63));
#41=CARTESIAN_POINT('',(2,5,-63));
#42=CARTESIAN_POINT('',(93,5,-62.732052));
#43=CARTESIAN_POINT('',(92.51764,5,-62.931852));
#44=CARTESIAN_POINT('',(1.482361,5,-62.931852));
#45=CARTESIAN_POINT('',(1,5,-62.732052));
#46=CARTESIAN_POINT('',(0.585786,5,-62.414216));
#47=CARTESIAN_POINT('',(2.5,5,-60));
#48=CARTESIAN_POINT('',(0.267949,5,-62));
#49=CARTESIAN_POINT('',(0.068148,5,-61.51764));
#50=CARTESIAN_POINT('',(0,5,-61));
#51=CARTESIAN_POINT('',(0,5,-2));
#52=CARTESIAN_POINT('',(2,5,0));
#53=CARTESIAN_POINT('',(0.068148,5,-1.482361));
#54=CARTESIAN_POINT('',(0.267949,5,-1));
#55=CARTESIAN_POINT('',(0.585786,5,-0.585786));
#56=CARTESIAN_POINT('',(1,5,-0.267949));
#57=CARTESIAN_POINT('',(1.482361,5,-0.068148));
#58=CARTESIAN_POINT('',(2,0,0));
#59=CARTESIAN_POINT('',(92,0,0));
#60=CARTESIAN_POINT('',(90.5,0,-60));
#61=CARTESIAN_POINT('',(94,0,-61));
#62=CARTESIAN_POINT('',(90.5,0,-59.935592));
#63=CARTESIAN_POINT('',(94,0,-2));
#64=CARTESIAN_POINT('',(0,0,-2));
#65=CARTESIAN_POINT('',(0.068148,0,-1.482361));
#66=CARTESIAN_POINT('',(0.267949,0,-1));
#67=CARTESIAN_POINT('',(0.585786,0,-0.585786));
#68=CARTESIAN_POINT('',(1,0,-0.267949));
#69=CARTESIAN_POINT('',(1.482361,0,-0.068148));
#70=CARTESIAN_POINT('',(2.5,0,-60));
#71=CARTESIAN_POINT('',(2,0,-63));
#72=CARTESIAN_POINT('',(92,0,-63));
#73=CARTESIAN_POINT('',(93.414216,0,-62.414216));
#74=CARTESIAN_POINT('',(93,0,-62.732052));
#75=CARTESIAN_POINT('',(92.51764,0,-62.931852));
#76=CARTESIAN_POINT('',(2.5,0,-59.935592));
#77=CARTESIAN_POINT('',(0,0,-61));
#78=CARTESIAN_POINT('',(0.068148,0,-61.51764));
#79=CARTESIAN_POINT('',(0.267949,0,-62));
#80=CARTESIAN_POINT('',(93.931856,0,-1.482361));
#81=CARTESIAN_POINT('',(93.732048,0,-1));
#82=CARTESIAN_POINT('',(0.585786,0,-62.414216));
#83=CARTESIAN_POINT('',(1,0,-62.732052));
#84=CARTESIAN_POINT('',(1.482361,0,-62.931852));
#85=CARTESIAN_POINT('',(93.732048,0,-62));
#86=CARTESIAN_POINT('',(93.931856,0,-61.51764));
#87=CARTESIAN_POINT('',(93.414216,0,-0.585786));
#88=CARTESIAN_POINT('',(93,0,-0.267949));
#89=CARTESIAN_POINT('',(92.51764,0,-0.068148));
#90=CARTESIAN_POINT('',(2.5,2,-59.935592));
#91=CARTESIAN_POINT('',(90.5,2,-59.935592));
#92=POLY_LOOP('',(#16,#17,#18));
#93=FACE_OUTER_BOUND('',#92,.T.);
#94=FACETED_FACE('',(#93));
#95=POLY_LOOP('',(#18,#17,#19));
#96=FACE_OUTER_BOUND('',#95,.T.);
#97=FACETED_FACE('',(#96));
#98=POLY_LOOP('',(#20,#21,#22));
#99=FACE_OUTER_BOUND('',#98,.T.);
#100=FACETED_FACE('',(#99));
#101=POLY_LOOP('',(#22,#21,#23));
#102=FACE_OUTER_BOUND('',#101,.T.);
#103=FACETED_FACE('',(#102));
#104=POLY_LOOP('',(#16,#24,#17));
#105=FACE_OUTER_BOUND('',#104,.T.);
#106=FACETED_FACE('',(#105));
#107=POLY_LOOP('',(#17,#24,#25));
#108=FACE_OUTER_BOUND('',#107,.T.);
#109=FACETED_FACE('',(#108));
#110=POLY_LOOP('',(#23,#26,#22));
#111=FACE_OUTER_BOUND('',#110,.T.);
#112=FACETED_FACE('',(#111));
#113=POLY_LOOP('',(#22,#26,#27));
#114=FACE_OUTER_BOUND('',#113,.T.);
#115=FACETED_FACE('',(#114));
#116=POLY_LOOP('',(#23,#21,#26));
#117=FACE_OUTER_BOUND('',#116,.T.);
#118=FACETED_FACE('',(#117));
#119=POLY_LOOP('',(#26,#21,#28));
#120=FACE_OUTER_BOUND('',#119,.T.);
#121=FACETED_FACE('',(#120));
#122=POLY_LOOP('',(#26,#28,#29));
#123=FACE_OUTER_BOUND('',#122,.T.);
#124=FACETED_FACE('',(#123));
#125=POLY_LOOP('',(#29,#28,#30));
#126=FACE_OUTER_BOUND('',#125,.T.);
#127=FACETED_FACE('',(#126));
#128=POLY_LOOP('',(#30,#28,#31));
#129=FACE_OUTER_BOUND('',#128,.T.);
#130=FACETED_FACE('',(#129));
#131=POLY_LOOP('',(#31,#28,#32));
#132=FACE_OUTER_BOUND('',#131,.T.);
#133=FACETED_FACE('',(#132));
#134=POLY_LOOP('',(#32,#28,#33));
#135=FACE_OUTER_BOUND('',#134,.T.);
#136=FACETED_FACE('',(#135));
#137=POLY_LOOP('',(#29,#34,#26));
#138=FACE_OUTER_BOUND('',#137,.T.);
#139=FACETED_FACE('',(#138));
#140=POLY_LOOP('',(#26,#34,#35));
#141=FACE_OUTER_BOUND('',#140,.T.);
#142=FACETED_FACE('',(#141));
#143=POLY_LOOP('',(#26,#35,#36));
#144=FACE_OUTER_BOUND('',#143,.T.);
#145=FACETED_FACE('',(#144));
#146=POLY_LOOP('',(#36,#35,#37));
#147=FACE_OUTER_BOUND('',#146,.T.);
#148=FACETED_FACE('',(#147));
#149=POLY_LOOP('',(#36,#37,#38));
#150=FACE_OUTER_BOUND('',#149,.T.);
#151=FACETED_FACE('',(#150));
#152=POLY_LOOP('',(#38,#39,#36));
#153=FACE_OUTER_BOUND('',#152,.T.);
#154=FACETED_FACE('',(#153));
#155=POLY_LOOP('',(#36,#39,#40));
#156=FACE_OUTER_BOUND('',#155,.T.);
#157=FACETED_FACE('',(#156));
#158=POLY_LOOP('',(#36,#40,#41));
#159=FACE_OUTER_BOUND('',#158,.T.);
#160=FACETED_FACE('',(#159));
#161=POLY_LOOP('',(#39,#42,#40));
#162=FACE_OUTER_BOUND('',#161,.T.);
#163=FACETED_FACE('',(#162));
#164=POLY_LOOP('',(#40,#42,#43));
#165=FACE_OUTER_BOUND('',#164,.T.);
#166=FACETED_FACE('',(#165));
#167=POLY_LOOP('',(#44,#45,#41));
#168=FACE_OUTER_BOUND('',#167,.T.);
#169=FACETED_FACE('',(#168));
#170=POLY_LOOP('',(#41,#45,#46));
#171=FACE_OUTER_BOUND('',#170,.T.);
#172=FACETED_FACE('',(#171));
#173=POLY_LOOP('',(#41,#46,#47));
#174=FACE_OUTER_BOUND('',#173,.T.);
#175=FACETED_FACE('',(#174));
#176=POLY_LOOP('',(#47,#46,#48));
#177=FACE_OUTER_BOUND('',#176,.T.);
#178=FACETED_FACE('',(#177));
#179=POLY_LOOP('',(#47,#48,#49));
#180=FACE_OUTER_BOUND('',#179,.T.);
#181=FACETED_FACE('',(#180));
#182=POLY_LOOP('',(#49,#50,#47));
#183=FACE_OUTER_BOUND('',#182,.T.);
#184=FACETED_FACE('',(#183));
#185=POLY_LOOP('',(#47,#50,#25));
#186=FACE_OUTER_BOUND('',#185,.T.);
#187=FACETED_FACE('',(#186));
#188=POLY_LOOP('',(#25,#50,#51));
#189=FACE_OUTER_BOUND('',#188,.T.);
#190=FACETED_FACE('',(#189));
#191=POLY_LOOP('',(#25,#51,#52));
#192=FACE_OUTER_BOUND('',#191,.T.);
#193=FACETED_FACE('',(#192));
#194=POLY_LOOP('',(#52,#51,#53));
#195=FACE_OUTER_BOUND('',#194,.T.);
#196=FACETED_FACE('',(#195));
#197=POLY_LOOP('',(#52,#53,#54));
#198=FACE_OUTER_BOUND('',#197,.T.);
#199=FACETED_FACE('',(#198));
#200=POLY_LOOP('',(#54,#55,#52));
#201=FACE_OUTER_BOUND('',#200,.T.);
#202=FACETED_FACE('',(#201));
#203=POLY_LOOP('',(#52,#55,#56));
#204=FACE_OUTER_BOUND('',#203,.T.);
#205=FACETED_FACE('',(#204));
#206=POLY_LOOP('',(#52,#56,#57));
#207=FACE_OUTER_BOUND('',#206,.T.);
#208=FACETED_FACE('',(#207));
#209=POLY_LOOP('',(#52,#19,#25));
#210=FACE_OUTER_BOUND('',#209,.T.);
#211=FACETED_FACE('',(#210));
#212=POLY_LOOP('',(#25,#19,#17));
#213=FACE_OUTER_BOUND('',#212,.T.);
#214=FACETED_FACE('',(#213));
#215=POLY_LOOP('',(#47,#36,#41));
#216=FACE_OUTER_BOUND('',#215,.T.);
#217=FACETED_FACE('',(#216));
#218=POLY_LOOP('',(#19,#52,#18));
#219=FACE_OUTER_BOUND('',#218,.T.);
#220=FACETED_FACE('',(#219));
#221=POLY_LOOP('',(#18,#52,#58));
#222=FACE_OUTER_BOUND('',#221,.T.);
#223=FACETED_FACE('',(#222));
#224=POLY_LOOP('',(#18,#58,#20));
#225=FACE_OUTER_BOUND('',#224,.T.);
#226=FACETED_FACE('',(#225));
#227=POLY_LOOP('',(#20,#58,#59));
#228=FACE_OUTER_BOUND('',#227,.T.);
#229=FACETED_FACE('',(#228));
#230=POLY_LOOP('',(#20,#59,#28));
#231=FACE_OUTER_BOUND('',#230,.T.);
#232=FACETED_FACE('',(#231));
#233=POLY_LOOP('',(#28,#21,#20));
#234=FACE_OUTER_BOUND('',#233,.T.);
#235=FACETED_FACE('',(#234));
#236=POLY_LOOP('',(#60,#61,#62));
#237=FACE_OUTER_BOUND('',#236,.T.);
#238=FACETED_FACE('',(#237));
#239=POLY_LOOP('',(#62,#61,#63));
#240=FACE_OUTER_BOUND('',#239,.T.);
#241=FACETED_FACE('',(#240));
#242=POLY_LOOP('',(#62,#63,#64));
#243=FACE_OUTER_BOUND('',#242,.T.);
#244=FACETED_FACE('',(#243));
#245=POLY_LOOP('',(#64,#63,#58));
#246=FACE_OUTER_BOUND('',#245,.T.);
#247=FACETED_FACE('',(#246));
#248=POLY_LOOP('',(#64,#58,#65));
#249=FACE_OUTER_BOUND('',#248,.T.);
#250=FACETED_FACE('',(#249));
#251=POLY_LOOP('',(#65,#58,#66));
#252=FACE_OUTER_BOUND('',#251,.T.);
#253=FACETED_FACE('',(#252));
#254=POLY_LOOP('',(#66,#58,#67));
#255=FACE_OUTER_BOUND('',#254,.T.);
#256=FACETED_FACE('',(#255));
#257=POLY_LOOP('',(#67,#58,#68));
#258=FACE_OUTER_BOUND('',#257,.T.);
#259=FACETED_FACE('',(#258));
#260=POLY_LOOP('',(#68,#58,#69));
#261=FACE_OUTER_BOUND('',#260,.T.);
#262=FACETED_FACE('',(#261));
#263=POLY_LOOP('',(#70,#71,#60));
#264=FACE_OUTER_BOUND('',#263,.T.);
#265=FACETED_FACE('',(#264));
#266=POLY_LOOP('',(#60,#71,#72));
#267=FACE_OUTER_BOUND('',#266,.T.);
#268=FACETED_FACE('',(#267));
#269=POLY_LOOP('',(#60,#72,#73));
#270=FACE_OUTER_BOUND('',#269,.T.);
#271=FACETED_FACE('',(#270));
#272=POLY_LOOP('',(#73,#72,#74));
#273=FACE_OUTER_BOUND('',#272,.T.);
#274=FACETED_FACE('',(#273));
#275=POLY_LOOP('',(#74,#72,#75));
#276=FACE_OUTER_BOUND('',#275,.T.);
#277=FACETED_FACE('',(#276));
#278=POLY_LOOP('',(#76,#77,#70));
#279=FACE_OUTER_BOUND('',#278,.T.);
#280=FACETED_FACE('',(#279));
#281=POLY_LOOP('',(#70,#77,#78));
#282=FACE_OUTER_BOUND('',#281,.T.);
#283=FACETED_FACE('',(#282));
#284=POLY_LOOP('',(#70,#78,#79));
#285=FACE_OUTER_BOUND('',#284,.T.);
#286=FACETED_FACE('',(#285));
#287=POLY_LOOP('',(#77,#76,#64));
#288=FACE_OUTER_BOUND('',#287,.T.);
#289=FACETED_FACE('',(#288));
#290=POLY_LOOP('',(#64,#76,#62));
#291=FACE_OUTER_BOUND('',#290,.T.);
#292=FACETED_FACE('',(#291));
#293=POLY_LOOP('',(#58,#63,#59));
#294=FACE_OUTER_BOUND('',#293,.T.);
#295=FACETED_FACE('',(#294));
#296=POLY_LOOP('',(#59,#63,#80));
#297=FACE_OUTER_BOUND('',#296,.T.);
#298=FACETED_FACE('',(#297));
#299=POLY_LOOP('',(#59,#80,#81));
#300=FACE_OUTER_BOUND('',#299,.T.);
#301=FACETED_FACE('',(#300));
#302=POLY_LOOP('',(#79,#82,#70));
#303=FACE_OUTER_BOUND('',#302,.T.);
#304=FACETED_FACE('',(#303));
#305=POLY_LOOP('',(#70,#82,#71));
#306=FACE_OUTER_BOUND('',#305,.T.);
#307=FACETED_FACE('',(#306));
#308=POLY_LOOP('',(#82,#83,#71));
#309=FACE_OUTER_BOUND('',#308,.T.);
#310=FACETED_FACE('',(#309));
#311=POLY_LOOP('',(#71,#83,#84));
#312=FACE_OUTER_BOUND('',#311,.T.);
#313=FACETED_FACE('',(#312));
#314=POLY_LOOP('',(#73,#85,#60));
#315=FACE_OUTER_BOUND('',#314,.T.);
#316=FACETED_FACE('',(#315));
#317=POLY_LOOP('',(#60,#85,#86));
#318=FACE_OUTER_BOUND('',#317,.T.);
#319=FACETED_FACE('',(#318));
#320=POLY_LOOP('',(#60,#86,#61));
#321=FACE_OUTER_BOUND('',#320,.T.);
#322=FACETED_FACE('',(#321));
#323=POLY_LOOP('',(#81,#87,#59));
#324=FACE_OUTER_BOUND('',#323,.T.);
#325=FACETED_FACE('',(#324));
#326=POLY_LOOP('',(#59,#87,#88));
#327=FACE_OUTER_BOUND('',#326,.T.);
#328=FACETED_FACE('',(#327));
#329=POLY_LOOP('',(#59,#88,#89));
#330=FACE_OUTER_BOUND('',#329,.T.);
#331=FACETED_FACE('',(#330));
#332=POLY_LOOP('',(#77,#50,#78));
#333=FACE_OUTER_BOUND('',#332,.T.);
#334=FACETED_FACE('',(#333));
#335=POLY_LOOP('',(#78,#50,#49));
#336=FACE_OUTER_BOUND('',#335,.T.);
#337=FACETED_FACE('',(#336));
#338=POLY_LOOP('',(#78,#49,#79));
#339=FACE_OUTER_BOUND('',#338,.T.);
#340=FACETED_FACE('',(#339));
#341=POLY_LOOP('',(#79,#49,#48));
#342=FACE_OUTER_BOUND('',#341,.T.);
#343=FACETED_FACE('',(#342));
#344=POLY_LOOP('',(#79,#48,#82));
#345=FACE_OUTER_BOUND('',#344,.T.);
#346=FACETED_FACE('',(#345));
#347=POLY_LOOP('',(#82,#48,#46));
#348=FACE_OUTER_BOUND('',#347,.T.);
#349=FACETED_FACE('',(#348));
#350=POLY_LOOP('',(#82,#46,#83));
#351=FACE_OUTER_BOUND('',#350,.T.);
#352=FACETED_FACE('',(#351));
#353=POLY_LOOP('',(#83,#46,#45));
#354=FACE_OUTER_BOUND('',#353,.T.);
#355=FACETED_FACE('',(#354));
#356=POLY_LOOP('',(#83,#45,#84));
#357=FACE_OUTER_BOUND('',#356,.T.);
#358=FACETED_FACE('',(#357));
#359=POLY_LOOP('',(#84,#45,#44));
#360=FACE_OUTER_BOUND('',#359,.T.);
#361=FACETED_FACE('',(#360));
#362=POLY_LOOP('',(#84,#44,#71));
#363=FACE_OUTER_BOUND('',#362,.T.);
#364=FACETED_FACE('',(#363));
#365=POLY_LOOP('',(#71,#44,#41));
#366=FACE_OUTER_BOUND('',#365,.T.);
#367=FACETED_FACE('',(#366));
#368=POLY_LOOP('',(#41,#40,#71));
#369=FACE_OUTER_BOUND('',#368,.T.);
#370=FACETED_FACE('',(#369));
#371=POLY_LOOP('',(#71,#40,#72));
#372=FACE_OUTER_BOUND('',#371,.T.);
#373=FACETED_FACE('',(#372));
#374=POLY_LOOP('',(#72,#40,#75));
#375=FACE_OUTER_BOUND('',#374,.T.);
#376=FACETED_FACE('',(#375));
#377=POLY_LOOP('',(#75,#40,#43));
#378=FACE_OUTER_BOUND('',#377,.T.);
#379=FACETED_FACE('',(#378));
#380=POLY_LOOP('',(#75,#43,#74));
#381=FACE_OUTER_BOUND('',#380,.T.);
#382=FACETED_FACE('',(#381));
#383=POLY_LOOP('',(#74,#43,#42));
#384=FACE_OUTER_BOUND('',#383,.T.);
#385=FACETED_FACE('',(#384));
#386=POLY_LOOP('',(#74,#42,#73));
#387=FACE_OUTER_BOUND('',#386,.T.);
#388=FACETED_FACE('',(#387));
#389=POLY_LOOP('',(#73,#42,#39));
#390=FACE_OUTER_BOUND('',#389,.T.);
#391=FACETED_FACE('',(#390));
#392=POLY_LOOP('',(#73,#39,#85));
#393=FACE_OUTER_BOUND('',#392,.T.);
#394=FACETED_FACE('',(#393));
#395=POLY_LOOP('',(#85,#39,#38));
#396=FACE_OUTER_BOUND('',#395,.T.);
#397=FACETED_FACE('',(#396));
#398=POLY_LOOP('',(#85,#38,#86));
#399=FACE_OUTER_BOUND('',#398,.T.);
#400=FACETED_FACE('',(#399));
#401=POLY_LOOP('',(#86,#38,#37));
#402=FACE_OUTER_BOUND('',#401,.T.);
#403=FACETED_FACE('',(#402));
#404=POLY_LOOP('',(#86,#37,#61));
#405=FACE_OUTER_BOUND('',#404,.T.);
#406=FACETED_FACE('',(#405));
#407=POLY_LOOP('',(#61,#37,#35));
#408=FACE_OUTER_BOUND('',#407,.T.);
#409=FACETED_FACE('',(#408));
#410=POLY_LOOP('',(#58,#52,#69));
#411=FACE_OUTER_BOUND('',#410,.T.);
#412=FACETED_FACE('',(#411));
#413=POLY_LOOP('',(#69,#52,#57));
#414=FACE_OUTER_BOUND('',#413,.T.);
#415=FACETED_FACE('',(#414));
#416=POLY_LOOP('',(#69,#57,#68));
#417=FACE_OUTER_BOUND('',#416,.T.);
#418=FACETED_FACE('',(#417));
#419=POLY_LOOP('',(#68,#57,#56));
#420=FACE_OUTER_BOUND('',#419,.T.);
#421=FACETED_FACE('',(#420));
#422=POLY_LOOP('',(#68,#56,#67));
#423=FACE_OUTER_BOUND('',#422,.T.);
#424=FACETED_FACE('',(#423));
#425=POLY_LOOP('',(#67,#56,#55));
#426=FACE_OUTER_BOUND('',#425,.T.);
#427=FACETED_FACE('',(#426));
#428=POLY_LOOP('',(#67,#55,#66));
#429=FACE_OUTER_BOUND('',#428,.T.);
#430=FACETED_FACE('',(#429));
#431=POLY_LOOP('',(#66,#55,#54));
#432=FACE_OUTER_BOUND('',#431,.T.);
#433=FACETED_FACE('',(#432));
#434=POLY_LOOP('',(#66,#54,#65));
#435=FACE_OUTER_BOUND('',#434,.T.);
#436=FACETED_FACE('',(#435));
#437=POLY_LOOP('',(#65,#54,#53));
#438=FACE_OUTER_BOUND('',#437,.T.);
#439=FACETED_FACE('',(#438));
#440=POLY_LOOP('',(#65,#53,#64));
#441=FACE_OUTER_BOUND('',#440,.T.);
#442=FACETED_FACE('',(#441));
#443=POLY_LOOP('',(#64,#53,#51));
#444=FACE_OUTER_BOUND('',#443,.T.);
#445=FACETED_FACE('',(#444));
#446=POLY_LOOP('',(#63,#34,#80));
#447=FACE_OUTER_BOUND('',#446,.T.);
#448=FACETED_FACE('',(#447));
#449=POLY_LOOP('',(#80,#34,#29));
#450=FACE_OUTER_BOUND('',#449,.T.);
#451=FACETED_FACE('',(#450));
#452=POLY_LOOP('',(#80,#29,#81));
#453=FACE_OUTER_BOUND('',#452,.T.);
#454=FACETED_FACE('',(#453));
#455=POLY_LOOP('',(#81,#29,#30));
#456=FACE_OUTER_BOUND('',#455,.T.);
#457=FACETED_FACE('',(#456));
#458=POLY_LOOP('',(#81,#30,#87));
#459=FACE_OUTER_BOUND('',#458,.T.);
#460=FACETED_FACE('',(#459));
#461=POLY_LOOP('',(#87,#30,#31));
#462=FACE_OUTER_BOUND('',#461,.T.);
#463=FACETED_FACE('',(#462));
#464=POLY_LOOP('',(#87,#31,#88));
#465=FACE_OUTER_BOUND('',#464,.T.);
#466=FACETED_FACE('',(#465));
#467=POLY_LOOP('',(#88,#31,#32));
#468=FACE_OUTER_BOUND('',#467,.T.);
#469=FACETED_FACE('',(#468));
#470=POLY_LOOP('',(#88,#32,#89));
#471=FACE_OUTER_BOUND('',#470,.T.);
#472=FACETED_FACE('',(#471));
#473=POLY_LOOP('',(#89,#32,#33));
#474=FACE_OUTER_BOUND('',#473,.T.);
#475=FACETED_FACE('',(#474));
#476=POLY_LOOP('',(#89,#33,#59));
#477=FACE_OUTER_BOUND('',#476,.T.);
#478=FACETED_FACE('',(#477));
#479=POLY_LOOP('',(#59,#33,#28));
#480=FACE_OUTER_BOUND('',#479,.T.);
#481=FACETED_FACE('',(#480));
#482=POLY_LOOP('',(#35,#34,#61));
#483=FACE_OUTER_BOUND('',#482,.T.);
#484=FACETED_FACE('',(#483));
#485=POLY_LOOP('',(#61,#34,#63));
#486=FACE_OUTER_BOUND('',#485,.T.);
#487=FACETED_FACE('',(#486));
#488=POLY_LOOP('',(#90,#91,#76));
#489=FACE_OUTER_BOUND('',#488,.T.);
#490=FACETED_FACE('',(#489));
#491=POLY_LOOP('',(#76,#91,#62));
#492=FACE_OUTER_BOUND('',#491,.T.);
#493=FACETED_FACE('',(#492));
#494=POLY_LOOP('',(#24,#16,#90));
#495=FACE_OUTER_BOUND('',#494,.T.);
#496=FACETED_FACE('',(#495));
#497=POLY_LOOP('',(#90,#16,#22));
#498=FACE_OUTER_BOUND('',#497,.T.);
#499=FACETED_FACE('',(#498));
#500=POLY_LOOP('',(#90,#22,#91));
#501=FACE_OUTER_BOUND('',#500,.T.);
#502=FACETED_FACE('',(#501));
#503=POLY_LOOP('',(#91,#22,#27));
#504=FACE_OUTER_BOUND('',#503,.T.);
#505=FACETED_FACE('',(#504));
#506=POLY_LOOP('',(#16,#18,#22));
#507=FACE_OUTER_BOUND('',#506,.T.);
#508=FACETED_FACE('',(#507));
#509=POLY_LOOP('',(#22,#18,#20));
#510=FACE_OUTER_BOUND('',#509,.T.);
#511=FACETED_FACE('',(#510));
#512=POLY_LOOP('',(#62,#91,#60));
#513=FACE_OUTER_BOUND('',#512,.T.);
#514=FACETED_FACE('',(#513));
#515=POLY_LOOP('',(#60,#91,#36));
#516=FACE_OUTER_BOUND('',#515,.T.);
#517=FACETED_FACE('',(#516));
#518=POLY_LOOP('',(#36,#91,#26));
#519=FACE_OUTER_BOUND('',#518,.T.);
#520=FACETED_FACE('',(#519));
#521=POLY_LOOP('',(#26,#91,#27));
#522=FACE_OUTER_BOUND('',#521,.T.);
#523=FACETED_FACE('',(#522));
#524=POLY_LOOP('',(#76,#70,#90));
#525=FACE_OUTER_BOUND('',#524,.T.);
#526=FACETED_FACE('',(#525));
#527=POLY_LOOP('',(#90,#70,#47));
#528=FACE_OUTER_BOUND('',#527,.T.);
#529=FACETED_FACE('',(#528));
#530=POLY_LOOP('',(#90,#47,#25));
#531=FACE_OUTER_BOUND('',#530,.T.);
#532=FACETED_FACE('',(#531));
#533=POLY_LOOP('',(#25,#24,#90));
#534=FACE_OUTER_BOUND('',#533,.T.);
#535=FACETED_FACE('',(#534));
#536=POLY_LOOP('',(#70,#60,#47));
#537=FACE_OUTER_BOUND('',#536,.T.);
#538=FACETED_FACE('',(#537));
#539=POLY_LOOP('',(#47,#60,#36));
#540=FACE_OUTER_BOUND('',#539,.T.);
#541=FACETED_FACE('',(#540));
#542=POLY_LOOP('',(#77,#64,#50));
#543=FACE_OUTER_BOUND('',#542,.T.);
#544=FACETED_FACE('',(#543));
#545=POLY_LOOP('',(#50,#64,#51));
#546=FACE_OUTER_BOUND('',#545,.T.);
#547=FACETED_FACE('',(#546));
#548=CLOSED_SHELL('',(#94,#97,#100,#103,#106,#109,#112,#115,#118,#121,#124,#127,#130,#133,#136,#139,#142,#145,#148,#151,#154,#157,#160,#163,#166,#169,#172,#175,#178,#181,#184,#187,#190,#193,#196,#199,#202,#205,#208,#211,#214,#217,#220,#223,#226,#229,#232,#235,#238,#241,#244,#247,#250,#253,#256,#259,#262,#265,#268,#271,#274,#277,#280,#283,#286,#289,#292,#295,#298,#301,#304,#307,#310,#313,#316,#319,#322,#325,#328,#331,#334,#337,#340,#343,#346,#349,#352,#355,#358,#361,#364,#367,#370,#373,#376,#379,#382,#385,#388,#391,#394,#397,#400,#403,#406,#409,#412,#415,#418,#421,#424,#427,#430,#433,#436,#439,#442,#445,#448,#451,#454,#457,#460,#463,#466,#469,#472,#475,#478,#481,#484,#487,#490,#493,#496,#499,#502,#505,#508,#511,#514,#517,#520,#523,#526,#529,#532,#535,#538,#541,#544,#547));
#549=FACETED_BREP('Digital ID Card V1 enclosure',#548);
#15=SHAPE_REPRESENTATION('case', (#549), #10);
#550=SHAPE_DEFINITION_REPRESENTATION(#8,#15);
ENDSEC;
END-ISO-10303-21;
