%TF.GenerationSoftware,KiCad,Pcbnew,9.0.6*%
%TF.CreationDate,2026-07-21T02:03:05+05:30*%
%TF.ProjectId,Digital ID Card pcb,44696769-7461-46c2-9049-442043617264,rev?*%
%TF.SameCoordinates,Original*%
%TF.FileFunction,Paste,Top*%
%TF.FilePolarity,Positive*%
%FSLAX46Y46*%
G04 Gerber Fmt 4.6, Leading zero omitted, Abs format (unit mm)*
G04 Created by KiCad (PCBNEW 9.0.6) date 2026-07-21 02:03:05*
%MOMM*%
%LPD*%
G01*
G04 APERTURE LIST*
G04 Aperture macros list*
%AMRoundRect*
0 Rectangle with rounded corners*
0 $1 Rounding radius*
0 $2 $3 $4 $5 $6 $7 $8 $9 X,Y pos of 4 corners*
0 Add a 4 corners polygon primitive as box body*
4,1,4,$2,$3,$4,$5,$6,$7,$8,$9,$2,$3,0*
0 Add four circle primitives for the rounded corners*
1,1,$1+$1,$2,$3*
1,1,$1+$1,$4,$5*
1,1,$1+$1,$6,$7*
1,1,$1+$1,$8,$9*
0 Add four rect primitives between the rounded corners*
20,1,$1+$1,$2,$3,$4,$5,0*
20,1,$1+$1,$4,$5,$6,$7,0*
20,1,$1+$1,$6,$7,$8,$9,0*
20,1,$1+$1,$8,$9,$2,$3,0*%
%AMFreePoly0*
4,1,6,0.725000,-0.725000,-0.725000,-0.725000,-0.725000,0.125000,-0.125000,0.725000,0.725000,0.725000,0.725000,-0.725000,0.725000,-0.725000,$1*%
G04 Aperture macros list end*
%ADD10RoundRect,0.250000X0.262500X0.450000X-0.262500X0.450000X-0.262500X-0.450000X0.262500X-0.450000X0*%
%ADD11R,0.800000X0.400000*%
%ADD12R,0.400000X0.800000*%
%ADD13FreePoly0,0.000000*%
%ADD14R,1.450000X1.450000*%
%ADD15R,0.700000X0.700000*%
%ADD16R,1.450000X0.600000*%
%ADD17R,1.450000X0.300000*%
%ADD18R,1.700000X1.000000*%
%ADD19RoundRect,0.250000X0.475000X-0.250000X0.475000X0.250000X-0.475000X0.250000X-0.475000X-0.250000X0*%
%ADD20RoundRect,0.250000X0.450000X-0.262500X0.450000X0.262500X-0.450000X0.262500X-0.450000X-0.262500X0*%
%ADD21RoundRect,0.250000X-0.262500X-0.450000X0.262500X-0.450000X0.262500X0.450000X-0.262500X0.450000X0*%
%ADD22RoundRect,0.150000X0.512500X0.150000X-0.512500X0.150000X-0.512500X-0.150000X0.512500X-0.150000X0*%
%ADD23RoundRect,0.250000X-0.250000X-0.475000X0.250000X-0.475000X0.250000X0.475000X-0.250000X0.475000X0*%
%ADD24RoundRect,0.250000X0.250000X0.475000X-0.250000X0.475000X-0.250000X-0.475000X0.250000X-0.475000X0*%
%ADD25C,0.350000*%
%ADD26O,1.700000X0.600000*%
%ADD27O,1.200000X0.600000*%
G04 APERTURE END LIST*
D10*
%TO.C,R1*%
X73000000Y-53000000D03*
X71175000Y-53000000D03*
%TD*%
D11*
%TO.C,U3*%
X86075000Y-33050000D03*
X86075000Y-33850000D03*
X86075000Y-34650000D03*
X86075000Y-35450000D03*
X86075000Y-36250000D03*
X86075000Y-37050000D03*
X86075000Y-37850000D03*
X86075000Y-38650000D03*
X86075000Y-39450000D03*
X86075000Y-40250000D03*
X86075000Y-41050000D03*
D12*
X87175000Y-41950000D03*
X87975000Y-41950000D03*
X88775000Y-41950000D03*
X89575000Y-41950000D03*
X90375000Y-41950000D03*
X91175000Y-41950000D03*
X91975000Y-41950000D03*
X92775000Y-41950000D03*
X93575000Y-41950000D03*
X94375000Y-41950000D03*
X95175000Y-41950000D03*
X95975000Y-41950000D03*
X96775000Y-41950000D03*
D11*
X97875000Y-41050000D03*
X97875000Y-40250000D03*
X97875000Y-39450000D03*
X97875000Y-38650000D03*
X97875000Y-37850000D03*
X97875000Y-37050000D03*
X97875000Y-36250000D03*
X97875000Y-35450000D03*
X97875000Y-34650000D03*
X97875000Y-33850000D03*
X97875000Y-33050000D03*
D12*
X96775000Y-32150000D03*
X95975000Y-32150000D03*
X95175000Y-32150000D03*
X94375000Y-32150000D03*
X93575000Y-32150000D03*
X92775000Y-32150000D03*
X91975000Y-32150000D03*
X91175000Y-32150000D03*
X90375000Y-32150000D03*
X89575000Y-32150000D03*
X88775000Y-32150000D03*
X87975000Y-32150000D03*
X87175000Y-32150000D03*
D13*
X90000000Y-35075000D03*
D14*
X90000000Y-37050000D03*
X90000000Y-39025000D03*
X91975000Y-35075000D03*
X91975000Y-37050000D03*
X91975000Y-39025000D03*
X93950000Y-35075000D03*
X93950000Y-37050000D03*
X93950000Y-39025000D03*
D15*
X97925000Y-32100000D03*
X97925000Y-42000000D03*
X86025000Y-42000000D03*
X86025000Y-32100000D03*
%TD*%
D16*
%TO.C,J2*%
X68555000Y-64250000D03*
X68555000Y-63450000D03*
D17*
X68555000Y-62250000D03*
X68555000Y-61250000D03*
X68555000Y-60750000D03*
X68555000Y-59750000D03*
D16*
X68555000Y-58550000D03*
X68555000Y-57750000D03*
X68555000Y-57750000D03*
X68555000Y-58550000D03*
D17*
X68555000Y-59250000D03*
X68555000Y-60250000D03*
X68555000Y-61750000D03*
X68555000Y-62750000D03*
D16*
X68555000Y-63450000D03*
X68555000Y-64250000D03*
%TD*%
D18*
%TO.C,reset1*%
X68700000Y-43000000D03*
X75000000Y-43000000D03*
X68700000Y-46800000D03*
X75000000Y-46800000D03*
%TD*%
D19*
%TO.C,C3*%
X95000000Y-68950000D03*
X95000000Y-67050000D03*
%TD*%
D20*
%TO.C,R2*%
X83000000Y-58962500D03*
X83000000Y-57137500D03*
%TD*%
D21*
%TO.C,R5*%
X69087500Y-27000000D03*
X70912500Y-27000000D03*
%TD*%
D18*
%TO.C,boot1*%
X68700000Y-35950000D03*
X75000000Y-35950000D03*
X68700000Y-39750000D03*
X75000000Y-39750000D03*
%TD*%
D22*
%TO.C,U2*%
X91137500Y-62950000D03*
X91137500Y-62000000D03*
X91137500Y-61050000D03*
X88862500Y-61050000D03*
X88862500Y-62950000D03*
%TD*%
%TO.C,U1*%
X91275000Y-68900000D03*
X91275000Y-67950000D03*
X91275000Y-67000000D03*
X89000000Y-67000000D03*
X89000000Y-68900000D03*
%TD*%
D21*
%TO.C,R4*%
X78000000Y-45000000D03*
X79825000Y-45000000D03*
%TD*%
D10*
%TO.C,R3*%
X95912500Y-62000000D03*
X94087500Y-62000000D03*
%TD*%
D23*
%TO.C,C2*%
X89050000Y-57000000D03*
X90950000Y-57000000D03*
%TD*%
D24*
%TO.C,C1*%
X88000000Y-53000000D03*
X86100000Y-53000000D03*
%TD*%
D25*
X70000000Y-63890000D03*
X70000000Y-58110000D03*
D26*
X69470000Y-65320000D03*
D27*
X73650000Y-65320000D03*
D26*
X69470000Y-56680000D03*
D27*
X73650000Y-56680000D03*
D25*
X70000000Y-93000000D03*
X70000000Y-95540000D03*
X114250000Y-43710000D03*
X114250000Y-46250000D03*
X114250000Y-48790000D03*
X114250000Y-51330000D03*
X114250000Y-53870000D03*
X114250000Y-56410000D03*
X114250000Y-58950000D03*
X114250000Y-61490000D03*
M02*
