%TF.GenerationSoftware,KiCad,Pcbnew,9.0.6*%
%TF.CreationDate,2026-07-21T02:03:05+05:30*%
%TF.ProjectId,Digital ID Card pcb,44696769-7461-46c2-9049-442043617264,rev?*%
%TF.SameCoordinates,Original*%
%TF.FileFunction,Legend,Top*%
%TF.FilePolarity,Positive*%
%FSLAX46Y46*%
G04 Gerber Fmt 4.6, Leading zero omitted, Abs format (unit mm)*
G04 Created by KiCad (PCBNEW 9.0.6) date 2026-07-21 02:03:05*
%MOMM*%
%LPD*%
G01*
G04 APERTURE LIST*
%ADD10C,0.150000*%
%ADD11C,0.120000*%
%ADD12C,0.350000*%
%ADD13O,1.700000X0.600000*%
%ADD14O,1.200000X0.600000*%
G04 APERTURE END LIST*
D10*
X71920833Y-55104819D02*
X71587500Y-54628628D01*
X71349405Y-55104819D02*
X71349405Y-54104819D01*
X71349405Y-54104819D02*
X71730357Y-54104819D01*
X71730357Y-54104819D02*
X71825595Y-54152438D01*
X71825595Y-54152438D02*
X71873214Y-54200057D01*
X71873214Y-54200057D02*
X71920833Y-54295295D01*
X71920833Y-54295295D02*
X71920833Y-54438152D01*
X71920833Y-54438152D02*
X71873214Y-54533390D01*
X71873214Y-54533390D02*
X71825595Y-54581009D01*
X71825595Y-54581009D02*
X71730357Y-54628628D01*
X71730357Y-54628628D02*
X71349405Y-54628628D01*
X72873214Y-55104819D02*
X72301786Y-55104819D01*
X72587500Y-55104819D02*
X72587500Y-54104819D01*
X72587500Y-54104819D02*
X72492262Y-54247676D01*
X72492262Y-54247676D02*
X72397024Y-54342914D01*
X72397024Y-54342914D02*
X72301786Y-54390533D01*
X91213095Y-24304819D02*
X91213095Y-25114342D01*
X91213095Y-25114342D02*
X91260714Y-25209580D01*
X91260714Y-25209580D02*
X91308333Y-25257200D01*
X91308333Y-25257200D02*
X91403571Y-25304819D01*
X91403571Y-25304819D02*
X91594047Y-25304819D01*
X91594047Y-25304819D02*
X91689285Y-25257200D01*
X91689285Y-25257200D02*
X91736904Y-25209580D01*
X91736904Y-25209580D02*
X91784523Y-25114342D01*
X91784523Y-25114342D02*
X91784523Y-24304819D01*
X92165476Y-24304819D02*
X92784523Y-24304819D01*
X92784523Y-24304819D02*
X92451190Y-24685771D01*
X92451190Y-24685771D02*
X92594047Y-24685771D01*
X92594047Y-24685771D02*
X92689285Y-24733390D01*
X92689285Y-24733390D02*
X92736904Y-24781009D01*
X92736904Y-24781009D02*
X92784523Y-24876247D01*
X92784523Y-24876247D02*
X92784523Y-25114342D01*
X92784523Y-25114342D02*
X92736904Y-25209580D01*
X92736904Y-25209580D02*
X92689285Y-25257200D01*
X92689285Y-25257200D02*
X92594047Y-25304819D01*
X92594047Y-25304819D02*
X92308333Y-25304819D01*
X92308333Y-25304819D02*
X92213095Y-25257200D01*
X92213095Y-25257200D02*
X92165476Y-25209580D01*
X87213094Y-28669104D02*
X87689284Y-28669104D01*
X87117856Y-28954819D02*
X87451189Y-27954819D01*
X87451189Y-27954819D02*
X87784522Y-28954819D01*
X88117856Y-28288152D02*
X88117856Y-28954819D01*
X88117856Y-28383390D02*
X88165475Y-28335771D01*
X88165475Y-28335771D02*
X88260713Y-28288152D01*
X88260713Y-28288152D02*
X88403570Y-28288152D01*
X88403570Y-28288152D02*
X88498808Y-28335771D01*
X88498808Y-28335771D02*
X88546427Y-28431009D01*
X88546427Y-28431009D02*
X88546427Y-28954819D01*
X88879761Y-28288152D02*
X89260713Y-28288152D01*
X89022618Y-27954819D02*
X89022618Y-28811961D01*
X89022618Y-28811961D02*
X89070237Y-28907200D01*
X89070237Y-28907200D02*
X89165475Y-28954819D01*
X89165475Y-28954819D02*
X89260713Y-28954819D01*
X89974999Y-28907200D02*
X89879761Y-28954819D01*
X89879761Y-28954819D02*
X89689285Y-28954819D01*
X89689285Y-28954819D02*
X89594047Y-28907200D01*
X89594047Y-28907200D02*
X89546428Y-28811961D01*
X89546428Y-28811961D02*
X89546428Y-28431009D01*
X89546428Y-28431009D02*
X89594047Y-28335771D01*
X89594047Y-28335771D02*
X89689285Y-28288152D01*
X89689285Y-28288152D02*
X89879761Y-28288152D01*
X89879761Y-28288152D02*
X89974999Y-28335771D01*
X89974999Y-28335771D02*
X90022618Y-28431009D01*
X90022618Y-28431009D02*
X90022618Y-28526247D01*
X90022618Y-28526247D02*
X89546428Y-28621485D01*
X90451190Y-28288152D02*
X90451190Y-28954819D01*
X90451190Y-28383390D02*
X90498809Y-28335771D01*
X90498809Y-28335771D02*
X90594047Y-28288152D01*
X90594047Y-28288152D02*
X90736904Y-28288152D01*
X90736904Y-28288152D02*
X90832142Y-28335771D01*
X90832142Y-28335771D02*
X90879761Y-28431009D01*
X90879761Y-28431009D02*
X90879761Y-28954819D01*
X91355952Y-28288152D02*
X91355952Y-28954819D01*
X91355952Y-28383390D02*
X91403571Y-28335771D01*
X91403571Y-28335771D02*
X91498809Y-28288152D01*
X91498809Y-28288152D02*
X91641666Y-28288152D01*
X91641666Y-28288152D02*
X91736904Y-28335771D01*
X91736904Y-28335771D02*
X91784523Y-28431009D01*
X91784523Y-28431009D02*
X91784523Y-28954819D01*
X92689285Y-28954819D02*
X92689285Y-28431009D01*
X92689285Y-28431009D02*
X92641666Y-28335771D01*
X92641666Y-28335771D02*
X92546428Y-28288152D01*
X92546428Y-28288152D02*
X92355952Y-28288152D01*
X92355952Y-28288152D02*
X92260714Y-28335771D01*
X92689285Y-28907200D02*
X92594047Y-28954819D01*
X92594047Y-28954819D02*
X92355952Y-28954819D01*
X92355952Y-28954819D02*
X92260714Y-28907200D01*
X92260714Y-28907200D02*
X92213095Y-28811961D01*
X92213095Y-28811961D02*
X92213095Y-28716723D01*
X92213095Y-28716723D02*
X92260714Y-28621485D01*
X92260714Y-28621485D02*
X92355952Y-28573866D01*
X92355952Y-28573866D02*
X92594047Y-28573866D01*
X92594047Y-28573866D02*
X92689285Y-28526247D01*
X93879762Y-28669104D02*
X94355952Y-28669104D01*
X93784524Y-28954819D02*
X94117857Y-27954819D01*
X94117857Y-27954819D02*
X94451190Y-28954819D01*
X94784524Y-28954819D02*
X94784524Y-28288152D01*
X94784524Y-28478628D02*
X94832143Y-28383390D01*
X94832143Y-28383390D02*
X94879762Y-28335771D01*
X94879762Y-28335771D02*
X94975000Y-28288152D01*
X94975000Y-28288152D02*
X95070238Y-28288152D01*
X95784524Y-28907200D02*
X95689286Y-28954819D01*
X95689286Y-28954819D02*
X95498810Y-28954819D01*
X95498810Y-28954819D02*
X95403572Y-28907200D01*
X95403572Y-28907200D02*
X95355953Y-28811961D01*
X95355953Y-28811961D02*
X95355953Y-28431009D01*
X95355953Y-28431009D02*
X95403572Y-28335771D01*
X95403572Y-28335771D02*
X95498810Y-28288152D01*
X95498810Y-28288152D02*
X95689286Y-28288152D01*
X95689286Y-28288152D02*
X95784524Y-28335771D01*
X95784524Y-28335771D02*
X95832143Y-28431009D01*
X95832143Y-28431009D02*
X95832143Y-28526247D01*
X95832143Y-28526247D02*
X95355953Y-28621485D01*
X96689286Y-28954819D02*
X96689286Y-28431009D01*
X96689286Y-28431009D02*
X96641667Y-28335771D01*
X96641667Y-28335771D02*
X96546429Y-28288152D01*
X96546429Y-28288152D02*
X96355953Y-28288152D01*
X96355953Y-28288152D02*
X96260715Y-28335771D01*
X96689286Y-28907200D02*
X96594048Y-28954819D01*
X96594048Y-28954819D02*
X96355953Y-28954819D01*
X96355953Y-28954819D02*
X96260715Y-28907200D01*
X96260715Y-28907200D02*
X96213096Y-28811961D01*
X96213096Y-28811961D02*
X96213096Y-28716723D01*
X96213096Y-28716723D02*
X96260715Y-28621485D01*
X96260715Y-28621485D02*
X96355953Y-28573866D01*
X96355953Y-28573866D02*
X96594048Y-28573866D01*
X96594048Y-28573866D02*
X96689286Y-28526247D01*
X66409819Y-61333333D02*
X67124104Y-61333333D01*
X67124104Y-61333333D02*
X67266961Y-61380952D01*
X67266961Y-61380952D02*
X67362200Y-61476190D01*
X67362200Y-61476190D02*
X67409819Y-61619047D01*
X67409819Y-61619047D02*
X67409819Y-61714285D01*
X66505057Y-60904761D02*
X66457438Y-60857142D01*
X66457438Y-60857142D02*
X66409819Y-60761904D01*
X66409819Y-60761904D02*
X66409819Y-60523809D01*
X66409819Y-60523809D02*
X66457438Y-60428571D01*
X66457438Y-60428571D02*
X66505057Y-60380952D01*
X66505057Y-60380952D02*
X66600295Y-60333333D01*
X66600295Y-60333333D02*
X66695533Y-60333333D01*
X66695533Y-60333333D02*
X66838390Y-60380952D01*
X66838390Y-60380952D02*
X67409819Y-60952380D01*
X67409819Y-60952380D02*
X67409819Y-60333333D01*
X69754761Y-41604819D02*
X69754761Y-40938152D01*
X69754761Y-41128628D02*
X69802380Y-41033390D01*
X69802380Y-41033390D02*
X69849999Y-40985771D01*
X69849999Y-40985771D02*
X69945237Y-40938152D01*
X69945237Y-40938152D02*
X70040475Y-40938152D01*
X70754761Y-41557200D02*
X70659523Y-41604819D01*
X70659523Y-41604819D02*
X70469047Y-41604819D01*
X70469047Y-41604819D02*
X70373809Y-41557200D01*
X70373809Y-41557200D02*
X70326190Y-41461961D01*
X70326190Y-41461961D02*
X70326190Y-41081009D01*
X70326190Y-41081009D02*
X70373809Y-40985771D01*
X70373809Y-40985771D02*
X70469047Y-40938152D01*
X70469047Y-40938152D02*
X70659523Y-40938152D01*
X70659523Y-40938152D02*
X70754761Y-40985771D01*
X70754761Y-40985771D02*
X70802380Y-41081009D01*
X70802380Y-41081009D02*
X70802380Y-41176247D01*
X70802380Y-41176247D02*
X70326190Y-41271485D01*
X71183333Y-41557200D02*
X71278571Y-41604819D01*
X71278571Y-41604819D02*
X71469047Y-41604819D01*
X71469047Y-41604819D02*
X71564285Y-41557200D01*
X71564285Y-41557200D02*
X71611904Y-41461961D01*
X71611904Y-41461961D02*
X71611904Y-41414342D01*
X71611904Y-41414342D02*
X71564285Y-41319104D01*
X71564285Y-41319104D02*
X71469047Y-41271485D01*
X71469047Y-41271485D02*
X71326190Y-41271485D01*
X71326190Y-41271485D02*
X71230952Y-41223866D01*
X71230952Y-41223866D02*
X71183333Y-41128628D01*
X71183333Y-41128628D02*
X71183333Y-41081009D01*
X71183333Y-41081009D02*
X71230952Y-40985771D01*
X71230952Y-40985771D02*
X71326190Y-40938152D01*
X71326190Y-40938152D02*
X71469047Y-40938152D01*
X71469047Y-40938152D02*
X71564285Y-40985771D01*
X72421428Y-41557200D02*
X72326190Y-41604819D01*
X72326190Y-41604819D02*
X72135714Y-41604819D01*
X72135714Y-41604819D02*
X72040476Y-41557200D01*
X72040476Y-41557200D02*
X71992857Y-41461961D01*
X71992857Y-41461961D02*
X71992857Y-41081009D01*
X71992857Y-41081009D02*
X72040476Y-40985771D01*
X72040476Y-40985771D02*
X72135714Y-40938152D01*
X72135714Y-40938152D02*
X72326190Y-40938152D01*
X72326190Y-40938152D02*
X72421428Y-40985771D01*
X72421428Y-40985771D02*
X72469047Y-41081009D01*
X72469047Y-41081009D02*
X72469047Y-41176247D01*
X72469047Y-41176247D02*
X71992857Y-41271485D01*
X72754762Y-40938152D02*
X73135714Y-40938152D01*
X72897619Y-40604819D02*
X72897619Y-41461961D01*
X72897619Y-41461961D02*
X72945238Y-41557200D01*
X72945238Y-41557200D02*
X73040476Y-41604819D01*
X73040476Y-41604819D02*
X73135714Y-41604819D01*
X73992857Y-41604819D02*
X73421429Y-41604819D01*
X73707143Y-41604819D02*
X73707143Y-40604819D01*
X73707143Y-40604819D02*
X73611905Y-40747676D01*
X73611905Y-40747676D02*
X73516667Y-40842914D01*
X73516667Y-40842914D02*
X73421429Y-40890533D01*
X69666666Y-90074819D02*
X69666666Y-90789104D01*
X69666666Y-90789104D02*
X69619047Y-90931961D01*
X69619047Y-90931961D02*
X69523809Y-91027200D01*
X69523809Y-91027200D02*
X69380952Y-91074819D01*
X69380952Y-91074819D02*
X69285714Y-91074819D01*
X70666666Y-91074819D02*
X70095238Y-91074819D01*
X70380952Y-91074819D02*
X70380952Y-90074819D01*
X70380952Y-90074819D02*
X70285714Y-90217676D01*
X70285714Y-90217676D02*
X70190476Y-90312914D01*
X70190476Y-90312914D02*
X70095238Y-90360533D01*
X93679580Y-68166666D02*
X93727200Y-68214285D01*
X93727200Y-68214285D02*
X93774819Y-68357142D01*
X93774819Y-68357142D02*
X93774819Y-68452380D01*
X93774819Y-68452380D02*
X93727200Y-68595237D01*
X93727200Y-68595237D02*
X93631961Y-68690475D01*
X93631961Y-68690475D02*
X93536723Y-68738094D01*
X93536723Y-68738094D02*
X93346247Y-68785713D01*
X93346247Y-68785713D02*
X93203390Y-68785713D01*
X93203390Y-68785713D02*
X93012914Y-68738094D01*
X93012914Y-68738094D02*
X92917676Y-68690475D01*
X92917676Y-68690475D02*
X92822438Y-68595237D01*
X92822438Y-68595237D02*
X92774819Y-68452380D01*
X92774819Y-68452380D02*
X92774819Y-68357142D01*
X92774819Y-68357142D02*
X92822438Y-68214285D01*
X92822438Y-68214285D02*
X92870057Y-68166666D01*
X92774819Y-67833332D02*
X92774819Y-67214285D01*
X92774819Y-67214285D02*
X93155771Y-67547618D01*
X93155771Y-67547618D02*
X93155771Y-67404761D01*
X93155771Y-67404761D02*
X93203390Y-67309523D01*
X93203390Y-67309523D02*
X93251009Y-67261904D01*
X93251009Y-67261904D02*
X93346247Y-67214285D01*
X93346247Y-67214285D02*
X93584342Y-67214285D01*
X93584342Y-67214285D02*
X93679580Y-67261904D01*
X93679580Y-67261904D02*
X93727200Y-67309523D01*
X93727200Y-67309523D02*
X93774819Y-67404761D01*
X93774819Y-67404761D02*
X93774819Y-67690475D01*
X93774819Y-67690475D02*
X93727200Y-67785713D01*
X93727200Y-67785713D02*
X93679580Y-67833332D01*
X81804819Y-58216666D02*
X81328628Y-58549999D01*
X81804819Y-58788094D02*
X80804819Y-58788094D01*
X80804819Y-58788094D02*
X80804819Y-58407142D01*
X80804819Y-58407142D02*
X80852438Y-58311904D01*
X80852438Y-58311904D02*
X80900057Y-58264285D01*
X80900057Y-58264285D02*
X80995295Y-58216666D01*
X80995295Y-58216666D02*
X81138152Y-58216666D01*
X81138152Y-58216666D02*
X81233390Y-58264285D01*
X81233390Y-58264285D02*
X81281009Y-58311904D01*
X81281009Y-58311904D02*
X81328628Y-58407142D01*
X81328628Y-58407142D02*
X81328628Y-58788094D01*
X80900057Y-57835713D02*
X80852438Y-57788094D01*
X80852438Y-57788094D02*
X80804819Y-57692856D01*
X80804819Y-57692856D02*
X80804819Y-57454761D01*
X80804819Y-57454761D02*
X80852438Y-57359523D01*
X80852438Y-57359523D02*
X80900057Y-57311904D01*
X80900057Y-57311904D02*
X80995295Y-57264285D01*
X80995295Y-57264285D02*
X81090533Y-57264285D01*
X81090533Y-57264285D02*
X81233390Y-57311904D01*
X81233390Y-57311904D02*
X81804819Y-57883332D01*
X81804819Y-57883332D02*
X81804819Y-57264285D01*
X69833333Y-25804819D02*
X69500000Y-25328628D01*
X69261905Y-25804819D02*
X69261905Y-24804819D01*
X69261905Y-24804819D02*
X69642857Y-24804819D01*
X69642857Y-24804819D02*
X69738095Y-24852438D01*
X69738095Y-24852438D02*
X69785714Y-24900057D01*
X69785714Y-24900057D02*
X69833333Y-24995295D01*
X69833333Y-24995295D02*
X69833333Y-25138152D01*
X69833333Y-25138152D02*
X69785714Y-25233390D01*
X69785714Y-25233390D02*
X69738095Y-25281009D01*
X69738095Y-25281009D02*
X69642857Y-25328628D01*
X69642857Y-25328628D02*
X69261905Y-25328628D01*
X70738095Y-24804819D02*
X70261905Y-24804819D01*
X70261905Y-24804819D02*
X70214286Y-25281009D01*
X70214286Y-25281009D02*
X70261905Y-25233390D01*
X70261905Y-25233390D02*
X70357143Y-25185771D01*
X70357143Y-25185771D02*
X70595238Y-25185771D01*
X70595238Y-25185771D02*
X70690476Y-25233390D01*
X70690476Y-25233390D02*
X70738095Y-25281009D01*
X70738095Y-25281009D02*
X70785714Y-25376247D01*
X70785714Y-25376247D02*
X70785714Y-25614342D01*
X70785714Y-25614342D02*
X70738095Y-25709580D01*
X70738095Y-25709580D02*
X70690476Y-25757200D01*
X70690476Y-25757200D02*
X70595238Y-25804819D01*
X70595238Y-25804819D02*
X70357143Y-25804819D01*
X70357143Y-25804819D02*
X70261905Y-25757200D01*
X70261905Y-25757200D02*
X70214286Y-25709580D01*
X69969047Y-34554819D02*
X69969047Y-33554819D01*
X69969047Y-33935771D02*
X70064285Y-33888152D01*
X70064285Y-33888152D02*
X70254761Y-33888152D01*
X70254761Y-33888152D02*
X70349999Y-33935771D01*
X70349999Y-33935771D02*
X70397618Y-33983390D01*
X70397618Y-33983390D02*
X70445237Y-34078628D01*
X70445237Y-34078628D02*
X70445237Y-34364342D01*
X70445237Y-34364342D02*
X70397618Y-34459580D01*
X70397618Y-34459580D02*
X70349999Y-34507200D01*
X70349999Y-34507200D02*
X70254761Y-34554819D01*
X70254761Y-34554819D02*
X70064285Y-34554819D01*
X70064285Y-34554819D02*
X69969047Y-34507200D01*
X71016666Y-34554819D02*
X70921428Y-34507200D01*
X70921428Y-34507200D02*
X70873809Y-34459580D01*
X70873809Y-34459580D02*
X70826190Y-34364342D01*
X70826190Y-34364342D02*
X70826190Y-34078628D01*
X70826190Y-34078628D02*
X70873809Y-33983390D01*
X70873809Y-33983390D02*
X70921428Y-33935771D01*
X70921428Y-33935771D02*
X71016666Y-33888152D01*
X71016666Y-33888152D02*
X71159523Y-33888152D01*
X71159523Y-33888152D02*
X71254761Y-33935771D01*
X71254761Y-33935771D02*
X71302380Y-33983390D01*
X71302380Y-33983390D02*
X71349999Y-34078628D01*
X71349999Y-34078628D02*
X71349999Y-34364342D01*
X71349999Y-34364342D02*
X71302380Y-34459580D01*
X71302380Y-34459580D02*
X71254761Y-34507200D01*
X71254761Y-34507200D02*
X71159523Y-34554819D01*
X71159523Y-34554819D02*
X71016666Y-34554819D01*
X71921428Y-34554819D02*
X71826190Y-34507200D01*
X71826190Y-34507200D02*
X71778571Y-34459580D01*
X71778571Y-34459580D02*
X71730952Y-34364342D01*
X71730952Y-34364342D02*
X71730952Y-34078628D01*
X71730952Y-34078628D02*
X71778571Y-33983390D01*
X71778571Y-33983390D02*
X71826190Y-33935771D01*
X71826190Y-33935771D02*
X71921428Y-33888152D01*
X71921428Y-33888152D02*
X72064285Y-33888152D01*
X72064285Y-33888152D02*
X72159523Y-33935771D01*
X72159523Y-33935771D02*
X72207142Y-33983390D01*
X72207142Y-33983390D02*
X72254761Y-34078628D01*
X72254761Y-34078628D02*
X72254761Y-34364342D01*
X72254761Y-34364342D02*
X72207142Y-34459580D01*
X72207142Y-34459580D02*
X72159523Y-34507200D01*
X72159523Y-34507200D02*
X72064285Y-34554819D01*
X72064285Y-34554819D02*
X71921428Y-34554819D01*
X72540476Y-33888152D02*
X72921428Y-33888152D01*
X72683333Y-33554819D02*
X72683333Y-34411961D01*
X72683333Y-34411961D02*
X72730952Y-34507200D01*
X72730952Y-34507200D02*
X72826190Y-34554819D01*
X72826190Y-34554819D02*
X72921428Y-34554819D01*
X73778571Y-34554819D02*
X73207143Y-34554819D01*
X73492857Y-34554819D02*
X73492857Y-33554819D01*
X73492857Y-33554819D02*
X73397619Y-33697676D01*
X73397619Y-33697676D02*
X73302381Y-33792914D01*
X73302381Y-33792914D02*
X73207143Y-33840533D01*
X89238095Y-63854819D02*
X89238095Y-64664342D01*
X89238095Y-64664342D02*
X89285714Y-64759580D01*
X89285714Y-64759580D02*
X89333333Y-64807200D01*
X89333333Y-64807200D02*
X89428571Y-64854819D01*
X89428571Y-64854819D02*
X89619047Y-64854819D01*
X89619047Y-64854819D02*
X89714285Y-64807200D01*
X89714285Y-64807200D02*
X89761904Y-64759580D01*
X89761904Y-64759580D02*
X89809523Y-64664342D01*
X89809523Y-64664342D02*
X89809523Y-63854819D01*
X90238095Y-63950057D02*
X90285714Y-63902438D01*
X90285714Y-63902438D02*
X90380952Y-63854819D01*
X90380952Y-63854819D02*
X90619047Y-63854819D01*
X90619047Y-63854819D02*
X90714285Y-63902438D01*
X90714285Y-63902438D02*
X90761904Y-63950057D01*
X90761904Y-63950057D02*
X90809523Y-64045295D01*
X90809523Y-64045295D02*
X90809523Y-64140533D01*
X90809523Y-64140533D02*
X90761904Y-64283390D01*
X90761904Y-64283390D02*
X90190476Y-64854819D01*
X90190476Y-64854819D02*
X90809523Y-64854819D01*
X108821428Y-41261009D02*
X109154761Y-41261009D01*
X109297618Y-41784819D02*
X108821428Y-41784819D01*
X108821428Y-41784819D02*
X108821428Y-40784819D01*
X108821428Y-40784819D02*
X109297618Y-40784819D01*
X109726190Y-41403866D02*
X110488095Y-41403866D01*
X110964285Y-41784819D02*
X110964285Y-41118152D01*
X110964285Y-40784819D02*
X110916666Y-40832438D01*
X110916666Y-40832438D02*
X110964285Y-40880057D01*
X110964285Y-40880057D02*
X111011904Y-40832438D01*
X111011904Y-40832438D02*
X110964285Y-40784819D01*
X110964285Y-40784819D02*
X110964285Y-40880057D01*
X111440475Y-41118152D02*
X111440475Y-41784819D01*
X111440475Y-41213390D02*
X111488094Y-41165771D01*
X111488094Y-41165771D02*
X111583332Y-41118152D01*
X111583332Y-41118152D02*
X111726189Y-41118152D01*
X111726189Y-41118152D02*
X111821427Y-41165771D01*
X111821427Y-41165771D02*
X111869046Y-41261009D01*
X111869046Y-41261009D02*
X111869046Y-41784819D01*
X112345237Y-41784819D02*
X112345237Y-40784819D01*
X112440475Y-41403866D02*
X112726189Y-41784819D01*
X112726189Y-41118152D02*
X112345237Y-41499104D01*
X112916666Y-41880057D02*
X113678570Y-41880057D01*
X114345237Y-41784819D02*
X114345237Y-40784819D01*
X114345237Y-41737200D02*
X114249999Y-41784819D01*
X114249999Y-41784819D02*
X114059523Y-41784819D01*
X114059523Y-41784819D02*
X113964285Y-41737200D01*
X113964285Y-41737200D02*
X113916666Y-41689580D01*
X113916666Y-41689580D02*
X113869047Y-41594342D01*
X113869047Y-41594342D02*
X113869047Y-41308628D01*
X113869047Y-41308628D02*
X113916666Y-41213390D01*
X113916666Y-41213390D02*
X113964285Y-41165771D01*
X113964285Y-41165771D02*
X114059523Y-41118152D01*
X114059523Y-41118152D02*
X114249999Y-41118152D01*
X114249999Y-41118152D02*
X114345237Y-41165771D01*
X114821428Y-41784819D02*
X114821428Y-41118152D01*
X114821428Y-40784819D02*
X114773809Y-40832438D01*
X114773809Y-40832438D02*
X114821428Y-40880057D01*
X114821428Y-40880057D02*
X114869047Y-40832438D01*
X114869047Y-40832438D02*
X114821428Y-40784819D01*
X114821428Y-40784819D02*
X114821428Y-40880057D01*
X115249999Y-41737200D02*
X115345237Y-41784819D01*
X115345237Y-41784819D02*
X115535713Y-41784819D01*
X115535713Y-41784819D02*
X115630951Y-41737200D01*
X115630951Y-41737200D02*
X115678570Y-41641961D01*
X115678570Y-41641961D02*
X115678570Y-41594342D01*
X115678570Y-41594342D02*
X115630951Y-41499104D01*
X115630951Y-41499104D02*
X115535713Y-41451485D01*
X115535713Y-41451485D02*
X115392856Y-41451485D01*
X115392856Y-41451485D02*
X115297618Y-41403866D01*
X115297618Y-41403866D02*
X115249999Y-41308628D01*
X115249999Y-41308628D02*
X115249999Y-41261009D01*
X115249999Y-41261009D02*
X115297618Y-41165771D01*
X115297618Y-41165771D02*
X115392856Y-41118152D01*
X115392856Y-41118152D02*
X115535713Y-41118152D01*
X115535713Y-41118152D02*
X115630951Y-41165771D01*
X116107142Y-41118152D02*
X116107142Y-42118152D01*
X116107142Y-41165771D02*
X116202380Y-41118152D01*
X116202380Y-41118152D02*
X116392856Y-41118152D01*
X116392856Y-41118152D02*
X116488094Y-41165771D01*
X116488094Y-41165771D02*
X116535713Y-41213390D01*
X116535713Y-41213390D02*
X116583332Y-41308628D01*
X116583332Y-41308628D02*
X116583332Y-41594342D01*
X116583332Y-41594342D02*
X116535713Y-41689580D01*
X116535713Y-41689580D02*
X116488094Y-41737200D01*
X116488094Y-41737200D02*
X116392856Y-41784819D01*
X116392856Y-41784819D02*
X116202380Y-41784819D01*
X116202380Y-41784819D02*
X116107142Y-41737200D01*
X117154761Y-41784819D02*
X117059523Y-41737200D01*
X117059523Y-41737200D02*
X117011904Y-41641961D01*
X117011904Y-41641961D02*
X117011904Y-40784819D01*
X117964285Y-41784819D02*
X117964285Y-41261009D01*
X117964285Y-41261009D02*
X117916666Y-41165771D01*
X117916666Y-41165771D02*
X117821428Y-41118152D01*
X117821428Y-41118152D02*
X117630952Y-41118152D01*
X117630952Y-41118152D02*
X117535714Y-41165771D01*
X117964285Y-41737200D02*
X117869047Y-41784819D01*
X117869047Y-41784819D02*
X117630952Y-41784819D01*
X117630952Y-41784819D02*
X117535714Y-41737200D01*
X117535714Y-41737200D02*
X117488095Y-41641961D01*
X117488095Y-41641961D02*
X117488095Y-41546723D01*
X117488095Y-41546723D02*
X117535714Y-41451485D01*
X117535714Y-41451485D02*
X117630952Y-41403866D01*
X117630952Y-41403866D02*
X117869047Y-41403866D01*
X117869047Y-41403866D02*
X117964285Y-41356247D01*
X118345238Y-41118152D02*
X118583333Y-41784819D01*
X118821428Y-41118152D02*
X118583333Y-41784819D01*
X118583333Y-41784819D02*
X118488095Y-42022914D01*
X118488095Y-42022914D02*
X118440476Y-42070533D01*
X118440476Y-42070533D02*
X118345238Y-42118152D01*
X119726190Y-41784819D02*
X119154762Y-41784819D01*
X119440476Y-41784819D02*
X119440476Y-40784819D01*
X119440476Y-40784819D02*
X119345238Y-40927676D01*
X119345238Y-40927676D02*
X119250000Y-41022914D01*
X119250000Y-41022914D02*
X119154762Y-41070533D01*
X89375595Y-69804819D02*
X89375595Y-70614342D01*
X89375595Y-70614342D02*
X89423214Y-70709580D01*
X89423214Y-70709580D02*
X89470833Y-70757200D01*
X89470833Y-70757200D02*
X89566071Y-70804819D01*
X89566071Y-70804819D02*
X89756547Y-70804819D01*
X89756547Y-70804819D02*
X89851785Y-70757200D01*
X89851785Y-70757200D02*
X89899404Y-70709580D01*
X89899404Y-70709580D02*
X89947023Y-70614342D01*
X89947023Y-70614342D02*
X89947023Y-69804819D01*
X90947023Y-70804819D02*
X90375595Y-70804819D01*
X90661309Y-70804819D02*
X90661309Y-69804819D01*
X90661309Y-69804819D02*
X90566071Y-69947676D01*
X90566071Y-69947676D02*
X90470833Y-70042914D01*
X90470833Y-70042914D02*
X90375595Y-70090533D01*
X78745833Y-43804819D02*
X78412500Y-43328628D01*
X78174405Y-43804819D02*
X78174405Y-42804819D01*
X78174405Y-42804819D02*
X78555357Y-42804819D01*
X78555357Y-42804819D02*
X78650595Y-42852438D01*
X78650595Y-42852438D02*
X78698214Y-42900057D01*
X78698214Y-42900057D02*
X78745833Y-42995295D01*
X78745833Y-42995295D02*
X78745833Y-43138152D01*
X78745833Y-43138152D02*
X78698214Y-43233390D01*
X78698214Y-43233390D02*
X78650595Y-43281009D01*
X78650595Y-43281009D02*
X78555357Y-43328628D01*
X78555357Y-43328628D02*
X78174405Y-43328628D01*
X79602976Y-43138152D02*
X79602976Y-43804819D01*
X79364881Y-42757200D02*
X79126786Y-43471485D01*
X79126786Y-43471485D02*
X79745833Y-43471485D01*
X94745833Y-62454819D02*
X94412500Y-61978628D01*
X94174405Y-62454819D02*
X94174405Y-61454819D01*
X94174405Y-61454819D02*
X94555357Y-61454819D01*
X94555357Y-61454819D02*
X94650595Y-61502438D01*
X94650595Y-61502438D02*
X94698214Y-61550057D01*
X94698214Y-61550057D02*
X94745833Y-61645295D01*
X94745833Y-61645295D02*
X94745833Y-61788152D01*
X94745833Y-61788152D02*
X94698214Y-61883390D01*
X94698214Y-61883390D02*
X94650595Y-61931009D01*
X94650595Y-61931009D02*
X94555357Y-61978628D01*
X94555357Y-61978628D02*
X94174405Y-61978628D01*
X95079167Y-61454819D02*
X95698214Y-61454819D01*
X95698214Y-61454819D02*
X95364881Y-61835771D01*
X95364881Y-61835771D02*
X95507738Y-61835771D01*
X95507738Y-61835771D02*
X95602976Y-61883390D01*
X95602976Y-61883390D02*
X95650595Y-61931009D01*
X95650595Y-61931009D02*
X95698214Y-62026247D01*
X95698214Y-62026247D02*
X95698214Y-62264342D01*
X95698214Y-62264342D02*
X95650595Y-62359580D01*
X95650595Y-62359580D02*
X95602976Y-62407200D01*
X95602976Y-62407200D02*
X95507738Y-62454819D01*
X95507738Y-62454819D02*
X95222024Y-62454819D01*
X95222024Y-62454819D02*
X95126786Y-62407200D01*
X95126786Y-62407200D02*
X95079167Y-62359580D01*
X89833333Y-55679580D02*
X89785714Y-55727200D01*
X89785714Y-55727200D02*
X89642857Y-55774819D01*
X89642857Y-55774819D02*
X89547619Y-55774819D01*
X89547619Y-55774819D02*
X89404762Y-55727200D01*
X89404762Y-55727200D02*
X89309524Y-55631961D01*
X89309524Y-55631961D02*
X89261905Y-55536723D01*
X89261905Y-55536723D02*
X89214286Y-55346247D01*
X89214286Y-55346247D02*
X89214286Y-55203390D01*
X89214286Y-55203390D02*
X89261905Y-55012914D01*
X89261905Y-55012914D02*
X89309524Y-54917676D01*
X89309524Y-54917676D02*
X89404762Y-54822438D01*
X89404762Y-54822438D02*
X89547619Y-54774819D01*
X89547619Y-54774819D02*
X89642857Y-54774819D01*
X89642857Y-54774819D02*
X89785714Y-54822438D01*
X89785714Y-54822438D02*
X89833333Y-54870057D01*
X90214286Y-54870057D02*
X90261905Y-54822438D01*
X90261905Y-54822438D02*
X90357143Y-54774819D01*
X90357143Y-54774819D02*
X90595238Y-54774819D01*
X90595238Y-54774819D02*
X90690476Y-54822438D01*
X90690476Y-54822438D02*
X90738095Y-54870057D01*
X90738095Y-54870057D02*
X90785714Y-54965295D01*
X90785714Y-54965295D02*
X90785714Y-55060533D01*
X90785714Y-55060533D02*
X90738095Y-55203390D01*
X90738095Y-55203390D02*
X90166667Y-55774819D01*
X90166667Y-55774819D02*
X90785714Y-55774819D01*
X86883333Y-55039580D02*
X86835714Y-55087200D01*
X86835714Y-55087200D02*
X86692857Y-55134819D01*
X86692857Y-55134819D02*
X86597619Y-55134819D01*
X86597619Y-55134819D02*
X86454762Y-55087200D01*
X86454762Y-55087200D02*
X86359524Y-54991961D01*
X86359524Y-54991961D02*
X86311905Y-54896723D01*
X86311905Y-54896723D02*
X86264286Y-54706247D01*
X86264286Y-54706247D02*
X86264286Y-54563390D01*
X86264286Y-54563390D02*
X86311905Y-54372914D01*
X86311905Y-54372914D02*
X86359524Y-54277676D01*
X86359524Y-54277676D02*
X86454762Y-54182438D01*
X86454762Y-54182438D02*
X86597619Y-54134819D01*
X86597619Y-54134819D02*
X86692857Y-54134819D01*
X86692857Y-54134819D02*
X86835714Y-54182438D01*
X86835714Y-54182438D02*
X86883333Y-54230057D01*
X87835714Y-55134819D02*
X87264286Y-55134819D01*
X87550000Y-55134819D02*
X87550000Y-54134819D01*
X87550000Y-54134819D02*
X87454762Y-54277676D01*
X87454762Y-54277676D02*
X87359524Y-54372914D01*
X87359524Y-54372914D02*
X87264286Y-54420533D01*
D11*
%TO.C,R1*%
X72314564Y-52265000D02*
X71860436Y-52265000D01*
X72314564Y-53735000D02*
X71860436Y-53735000D01*
%TO.C,U3*%
X85175000Y-42050000D02*
X85175000Y-42850000D01*
X85175000Y-42850000D02*
X85975000Y-42850000D01*
X85375000Y-26050000D02*
X98575000Y-26050000D01*
X85375000Y-31450000D02*
X98575000Y-31450000D01*
X85375000Y-42650000D02*
X85375000Y-26050000D01*
X86050000Y-25850000D02*
X85200000Y-25850000D01*
X98025000Y-25850000D02*
X98775000Y-25850000D01*
X98575000Y-26050000D02*
X98575000Y-42650000D01*
X98575000Y-42650000D02*
X85375000Y-42650000D01*
X98775000Y-25850000D02*
X98775000Y-26450000D01*
X98775000Y-42050000D02*
X98775000Y-42850000D01*
X98775000Y-42850000D02*
X97975000Y-42850000D01*
%TO.C,J2*%
X70700000Y-56300000D02*
X72700000Y-56300000D01*
X70700000Y-65700000D02*
X72700000Y-65700000D01*
X74600000Y-56300000D02*
X76500000Y-56300000D01*
X74600000Y-65700000D02*
X76500000Y-65700000D01*
X76500000Y-65700000D02*
X76500000Y-56300000D01*
%TO.C,reset1*%
X69100000Y-43900000D02*
X69100000Y-45900000D01*
X70150000Y-42600000D02*
X70600000Y-42150000D01*
X70150000Y-47200000D02*
X70600000Y-47650000D01*
X70600000Y-42150000D02*
X73100000Y-42150000D01*
X70600000Y-47650000D02*
X73100000Y-47650000D01*
X73550000Y-42600000D02*
X73100000Y-42150000D01*
X73550000Y-47200000D02*
X73100000Y-47650000D01*
X74600000Y-43900000D02*
X74600000Y-45900000D01*
%TO.C,J1*%
X68620000Y-91620000D02*
X70000000Y-91620000D01*
X68620000Y-93000000D02*
X68620000Y-91620000D01*
X68620000Y-94270000D02*
X68620000Y-96920000D01*
X68620000Y-94270000D02*
X71380000Y-94270000D01*
X68620000Y-96920000D02*
X71380000Y-96920000D01*
X71380000Y-94270000D02*
X71380000Y-96920000D01*
%TO.C,C3*%
X94265000Y-68261252D02*
X94265000Y-67738748D01*
X95735000Y-68261252D02*
X95735000Y-67738748D01*
%TO.C,R2*%
X82265000Y-58277064D02*
X82265000Y-57822936D01*
X83735000Y-58277064D02*
X83735000Y-57822936D01*
%TO.C,R5*%
X69772936Y-26265000D02*
X70227064Y-26265000D01*
X69772936Y-27735000D02*
X70227064Y-27735000D01*
%TO.C,boot1*%
X69100000Y-36850000D02*
X69100000Y-38850000D01*
X70150000Y-35550000D02*
X70600000Y-35100000D01*
X70150000Y-40150000D02*
X70600000Y-40600000D01*
X70600000Y-35100000D02*
X73100000Y-35100000D01*
X70600000Y-40600000D02*
X73100000Y-40600000D01*
X73550000Y-35550000D02*
X73100000Y-35100000D01*
X73550000Y-40150000D02*
X73100000Y-40600000D01*
X74600000Y-36850000D02*
X74600000Y-38850000D01*
%TO.C,U2*%
X89090000Y-60440000D02*
X90910000Y-60440000D01*
X89090000Y-60490000D02*
X89090000Y-60440000D01*
X89090000Y-62390000D02*
X89090000Y-61610000D01*
X89090000Y-63560000D02*
X89090000Y-63510000D01*
X90910000Y-60440000D02*
X90910000Y-60490000D01*
X90910000Y-63510000D02*
X90910000Y-63560000D01*
X90910000Y-63560000D02*
X89090000Y-63560000D01*
X91690000Y-63840000D02*
X91210000Y-63840000D01*
X91450000Y-63510000D01*
X91690000Y-63840000D01*
G36*
X91690000Y-63840000D02*
G01*
X91210000Y-63840000D01*
X91450000Y-63510000D01*
X91690000Y-63840000D01*
G37*
%TO.C,E-ink_display1*%
X112870000Y-42330000D02*
X114250000Y-42330000D01*
X112870000Y-43710000D02*
X112870000Y-42330000D01*
X112870000Y-44980000D02*
X112870000Y-62870000D01*
X112870000Y-44980000D02*
X115630000Y-44980000D01*
X112870000Y-62870000D02*
X115630000Y-62870000D01*
X115630000Y-44980000D02*
X115630000Y-62870000D01*
%TO.C,U1*%
X89227500Y-66390000D02*
X91047500Y-66390000D01*
X89227500Y-66440000D02*
X89227500Y-66390000D01*
X89227500Y-68340000D02*
X89227500Y-67560000D01*
X89227500Y-69510000D02*
X89227500Y-69460000D01*
X91047500Y-66390000D02*
X91047500Y-66440000D01*
X91047500Y-69460000D02*
X91047500Y-69510000D01*
X91047500Y-69510000D02*
X89227500Y-69510000D01*
X91827500Y-69790000D02*
X91347500Y-69790000D01*
X91587500Y-69460000D01*
X91827500Y-69790000D01*
G36*
X91827500Y-69790000D02*
G01*
X91347500Y-69790000D01*
X91587500Y-69460000D01*
X91827500Y-69790000D01*
G37*
%TO.C,R4*%
X78685436Y-44265000D02*
X79139564Y-44265000D01*
X78685436Y-45735000D02*
X79139564Y-45735000D01*
%TO.C,R3*%
X95227064Y-61265000D02*
X94772936Y-61265000D01*
X95227064Y-62735000D02*
X94772936Y-62735000D01*
%TO.C,C2*%
X89738748Y-56265000D02*
X90261252Y-56265000D01*
X89738748Y-57735000D02*
X90261252Y-57735000D01*
%TO.C,C1*%
X87311252Y-52265000D02*
X86788748Y-52265000D01*
X87311252Y-53735000D02*
X86788748Y-53735000D01*
%TD*%
D12*
X70000000Y-63890000D03*
X70000000Y-58110000D03*
D13*
X69470000Y-65320000D03*
D14*
X73650000Y-65320000D03*
D13*
X69470000Y-56680000D03*
D14*
X73650000Y-56680000D03*
D12*
X70000000Y-93000000D03*
X70000000Y-95540000D03*
X114250000Y-43710000D03*
X114250000Y-46250000D03*
X114250000Y-48790000D03*
X114250000Y-51330000D03*
X114250000Y-53870000D03*
X114250000Y-56410000D03*
X114250000Y-58950000D03*
X114250000Y-61490000D03*
M02*
