%TF.GenerationSoftware,KiCad,Pcbnew,9.0.6*%
%TF.CreationDate,2026-07-21T02:03:04+05:30*%
%TF.ProjectId,Digital ID Card pcb,44696769-7461-46c2-9049-442043617264,rev?*%
%TF.SameCoordinates,Original*%
%TF.FileFunction,Copper,L1,Top*%
%TF.FilePolarity,Positive*%
%FSLAX46Y46*%
G04 Gerber Fmt 4.6, Leading zero omitted, Abs format (unit mm)*
G04 Created by KiCad (PCBNEW 9.0.6) date 2026-07-21 02:03:04*
%MOMM*%
%LPD*%
G01*
G04 APERTURE LIST*
G04 Aperture macros list*
%AMRoundRect*
0 Rectangle with rounded corners*
0 $1 Rounding radius*
0 $2 $3 $4 $5 $6 $7 $8 $9 X,Y pos of 4 corners*
0 Add a 4 corners polygon primitive as box body*
4,1,4,$2,$3,$4,$5,$6,$7,$8,$9,$2,$3,0*
0 Add four circle primitives for the rounded corners*
1,1,$1+$1,$2,$3*
1,1,$1+$1,$4,$5*
1,1,$1+$1,$6,$7*
1,1,$1+$1,$8,$9*
0 Add four rect primitives between the rounded corners*
20,1,$1+$1,$2,$3,$4,$5,0*
20,1,$1+$1,$4,$5,$6,$7,0*
20,1,$1+$1,$6,$7,$8,$9,0*
20,1,$1+$1,$8,$9,$2,$3,0*%
%AMFreePoly0*
4,1,6,0.725000,-0.725000,-0.725000,-0.725000,-0.725000,0.125000,-0.125000,0.725000,0.725000,0.725000,0.725000,-0.725000,0.725000,-0.725000,$1*%
G04 Aperture macros list end*
%TA.AperFunction,SMDPad,CuDef*%
%ADD10RoundRect,0.250000X0.262500X0.450000X-0.262500X0.450000X-0.262500X-0.450000X0.262500X-0.450000X0*%
%TD*%
%TA.AperFunction,SMDPad,CuDef*%
%ADD11R,0.800000X0.400000*%
%TD*%
%TA.AperFunction,SMDPad,CuDef*%
%ADD12R,0.400000X0.800000*%
%TD*%
%TA.AperFunction,SMDPad,CuDef*%
%ADD13FreePoly0,0.000000*%
%TD*%
%TA.AperFunction,SMDPad,CuDef*%
%ADD14R,1.450000X1.450000*%
%TD*%
%TA.AperFunction,SMDPad,CuDef*%
%ADD15R,0.700000X0.700000*%
%TD*%
%TA.AperFunction,SMDPad,CuDef*%
%ADD16R,1.450000X0.600000*%
%TD*%
%TA.AperFunction,SMDPad,CuDef*%
%ADD17R,1.450000X0.300000*%
%TD*%
%TA.AperFunction,HeatsinkPad*%
%ADD18O,2.100000X1.000000*%
%TD*%
%TA.AperFunction,HeatsinkPad*%
%ADD19O,1.600000X1.000000*%
%TD*%
%TA.AperFunction,SMDPad,CuDef*%
%ADD20R,1.700000X1.000000*%
%TD*%
%TA.AperFunction,ComponentPad*%
%ADD21R,1.700000X1.700000*%
%TD*%
%TA.AperFunction,ComponentPad*%
%ADD22C,1.700000*%
%TD*%
%TA.AperFunction,SMDPad,CuDef*%
%ADD23RoundRect,0.250000X0.475000X-0.250000X0.475000X0.250000X-0.475000X0.250000X-0.475000X-0.250000X0*%
%TD*%
%TA.AperFunction,SMDPad,CuDef*%
%ADD24RoundRect,0.250000X0.450000X-0.262500X0.450000X0.262500X-0.450000X0.262500X-0.450000X-0.262500X0*%
%TD*%
%TA.AperFunction,SMDPad,CuDef*%
%ADD25RoundRect,0.250000X-0.262500X-0.450000X0.262500X-0.450000X0.262500X0.450000X-0.262500X0.450000X0*%
%TD*%
%TA.AperFunction,SMDPad,CuDef*%
%ADD26RoundRect,0.150000X0.512500X0.150000X-0.512500X0.150000X-0.512500X-0.150000X0.512500X-0.150000X0*%
%TD*%
%TA.AperFunction,SMDPad,CuDef*%
%ADD27RoundRect,0.250000X-0.250000X-0.475000X0.250000X-0.475000X0.250000X0.475000X-0.250000X0.475000X0*%
%TD*%
%TA.AperFunction,SMDPad,CuDef*%
%ADD28RoundRect,0.250000X0.250000X0.475000X-0.250000X0.475000X-0.250000X-0.475000X0.250000X-0.475000X0*%
%TD*%
%TA.AperFunction,ViaPad*%
%ADD29C,0.600000*%
%TD*%
%TA.AperFunction,Conductor*%
%ADD30C,0.200000*%
%TD*%
%ADD31C,0.300000*%
%ADD32C,0.350000*%
%ADD33O,1.700000X0.600000*%
%ADD34O,1.200000X0.600000*%
G04 APERTURE END LIST*
D10*
%TO.P,R1,1*%
%TO.N,Net-(J2-CC1)*%
X73000000Y-53000000D03*
%TO.P,R1,2*%
%TO.N,GND*%
X71175000Y-53000000D03*
%TD*%
D11*
%TO.P,U3,1,GND*%
%TO.N,GND*%
X86075000Y-33050000D03*
%TO.P,U3,2,GND*%
X86075000Y-33850000D03*
%TO.P,U3,3,3V3*%
%TO.N,+3V3*%
X86075000Y-34650000D03*
%TO.P,U3,4,NC*%
%TO.N,unconnected-(U3-NC-Pad4)*%
X86075000Y-35450000D03*
%TO.P,U3,5,GPIO2/ADC1_CH2*%
%TO.N,unconnected-(U3-GPIO2{slash}ADC1_CH2-Pad5)*%
X86075000Y-36250000D03*
%TO.P,U3,6,GPIO3/ADC1_CH3*%
%TO.N,unconnected-(U3-GPIO3{slash}ADC1_CH3-Pad6)*%
X86075000Y-37050000D03*
%TO.P,U3,7,NC*%
%TO.N,unconnected-(U3-NC-Pad7)*%
X86075000Y-37850000D03*
%TO.P,U3,8,EN/CHIP_PU*%
%TO.N,Net-(U3-EN{slash}CHIP_PU)*%
X86075000Y-38650000D03*
%TO.P,U3,9,NC*%
%TO.N,unconnected-(U3-NC-Pad9)*%
X86075000Y-39450000D03*
%TO.P,U3,10,NC*%
%TO.N,unconnected-(U3-NC-Pad10)*%
X86075000Y-40250000D03*
%TO.P,U3,11,GND*%
%TO.N,GND*%
X86075000Y-41050000D03*
D12*
%TO.P,U3,12,GPIO0/ADC1_CH0/XTAL_32K_P*%
%TO.N,unconnected-(U3-GPIO0{slash}ADC1_CH0{slash}XTAL_32K_P-Pad12)*%
X87175000Y-41950000D03*
%TO.P,U3,13,GPIO1/ADC1_CH1/XTAL_32K_N*%
%TO.N,unconnected-(U3-GPIO1{slash}ADC1_CH1{slash}XTAL_32K_N-Pad13)*%
X87975000Y-41950000D03*
%TO.P,U3,14,GND*%
%TO.N,GND*%
X88775000Y-41950000D03*
%TO.P,U3,15,NC*%
%TO.N,unconnected-(U3-NC-Pad15)*%
X89575000Y-41950000D03*
%TO.P,U3,16,GPIO10*%
%TO.N,Net-(E-ink_display1-Pin_7)*%
X90375000Y-41950000D03*
%TO.P,U3,17,NC*%
%TO.N,unconnected-(U3-NC-Pad17)*%
X91175000Y-41950000D03*
%TO.P,U3,18,GPIO4/ADC1_CH4*%
%TO.N,Net-(E-ink_display1-Pin_4)*%
X91975000Y-41950000D03*
%TO.P,U3,19,GPIO5/ADC2_CH0*%
%TO.N,Net-(E-ink_display1-Pin_8)*%
X92775000Y-41950000D03*
%TO.P,U3,20,GPIO6*%
%TO.N,Net-(E-ink_display1-Pin_3)*%
X93575000Y-41950000D03*
%TO.P,U3,21,GPIO7*%
%TO.N,Net-(E-ink_display1-Pin_5)*%
X94375000Y-41950000D03*
%TO.P,U3,22,GPIO8*%
%TO.N,Net-(E-ink_display1-Pin_6)*%
X95175000Y-41950000D03*
%TO.P,U3,23,GPIO9*%
%TO.N,Net-(U3-GPIO9)*%
X95975000Y-41950000D03*
%TO.P,U3,24,NC*%
%TO.N,unconnected-(U3-NC-Pad24)*%
X96775000Y-41950000D03*
D11*
%TO.P,U3,25,NC*%
%TO.N,unconnected-(U3-NC-Pad25)*%
X97875000Y-41050000D03*
%TO.P,U3,26,GPIO18/USB_D-*%
%TO.N,unconnected-(U3-GPIO18{slash}USB_D--Pad26)*%
X97875000Y-40250000D03*
%TO.P,U3,27,GPIO19/USB_D+*%
%TO.N,unconnected-(U3-GPIO19{slash}USB_D+-Pad27)*%
X97875000Y-39450000D03*
%TO.P,U3,28,NC*%
%TO.N,unconnected-(U3-NC-Pad28)*%
X97875000Y-38650000D03*
%TO.P,U3,29,NC*%
%TO.N,unconnected-(U3-NC-Pad29)*%
X97875000Y-37850000D03*
%TO.P,U3,30,GPIO20/U0RXD*%
%TO.N,unconnected-(U3-GPIO20{slash}U0RXD-Pad30)*%
X97875000Y-37050000D03*
%TO.P,U3,31,GPIO21/U0TXD*%
%TO.N,N/C*%
X97875000Y-36250000D03*
%TO.P,U3,32,NC*%
X97875000Y-35450000D03*
%TO.P,U3,33,NC*%
X97875000Y-34650000D03*
%TO.P,U3,34,NC*%
X97875000Y-33850000D03*
%TO.P,U3,35,NC*%
X97875000Y-33050000D03*
D12*
%TO.P,U3,36,GND*%
%TO.N,GND*%
X96775000Y-32150000D03*
%TO.P,U3,37,GND*%
X95975000Y-32150000D03*
%TO.P,U3,38,GND*%
X95175000Y-32150000D03*
%TO.P,U3,39,GND*%
X94375000Y-32150000D03*
%TO.P,U3,40,GND*%
X93575000Y-32150000D03*
%TO.P,U3,41,GND*%
X92775000Y-32150000D03*
%TO.P,U3,42,GND*%
X91975000Y-32150000D03*
%TO.P,U3,43,GND*%
X91175000Y-32150000D03*
%TO.P,U3,44,GND*%
X90375000Y-32150000D03*
%TO.P,U3,45,GND*%
X89575000Y-32150000D03*
%TO.P,U3,46,GND*%
X88775000Y-32150000D03*
%TO.P,U3,47,GND*%
X87975000Y-32150000D03*
%TO.P,U3,48,GND*%
X87175000Y-32150000D03*
D13*
%TO.P,U3,49,GND*%
X90000000Y-35075000D03*
D14*
X90000000Y-37050000D03*
X90000000Y-39025000D03*
X91975000Y-35075000D03*
X91975000Y-37050000D03*
X91975000Y-39025000D03*
X93950000Y-35075000D03*
X93950000Y-37050000D03*
X93950000Y-39025000D03*
D15*
%TO.P,U3,50,GND*%
X97925000Y-32100000D03*
%TO.P,U3,51,GND*%
X97925000Y-42000000D03*
%TO.P,U3,52,GND*%
X86025000Y-42000000D03*
%TO.P,U3,53,GND*%
X86025000Y-32100000D03*
%TD*%
D16*
%TO.P,J2,A1,GND*%
%TO.N,GND*%
X68555000Y-64250000D03*
%TO.P,J2,A4,VBUS*%
%TO.N,Net-(J2-VBUS-PadA4)*%
X68555000Y-63450000D03*
D17*
%TO.P,J2,A5,CC1*%
%TO.N,Net-(J2-CC1)*%
X68555000Y-62250000D03*
%TO.P,J2,A6,D+*%
%TO.N,unconnected-(J2-D+-PadA6)*%
X68555000Y-61250000D03*
%TO.P,J2,A7,D-*%
%TO.N,unconnected-(J2-D--PadA7)*%
X68555000Y-60750000D03*
%TO.P,J2,A8*%
%TO.N,N/C*%
X68555000Y-59750000D03*
D16*
%TO.P,J2,A9,VBUS*%
%TO.N,Net-(J2-VBUS-PadA4)*%
X68555000Y-58550000D03*
%TO.P,J2,A12,GND*%
%TO.N,GND*%
X68555000Y-57750000D03*
%TO.P,J2,B1,GND*%
X68555000Y-57750000D03*
%TO.P,J2,B4,VBUS*%
%TO.N,Net-(J2-VBUS-PadA4)*%
X68555000Y-58550000D03*
D17*
%TO.P,J2,B5,CC2*%
%TO.N,Net-(J2-CC2)*%
X68555000Y-59250000D03*
%TO.P,J2,B6,D+*%
%TO.N,unconnected-(J2-D+-PadB6)*%
X68555000Y-60250000D03*
%TO.P,J2,B7,D-*%
%TO.N,unconnected-(J2-D--PadB7)*%
X68555000Y-61750000D03*
%TO.P,J2,B8*%
%TO.N,N/C*%
X68555000Y-62750000D03*
D16*
%TO.P,J2,B9,VBUS*%
%TO.N,Net-(J2-VBUS-PadA4)*%
X68555000Y-63450000D03*
%TO.P,J2,B12,GND*%
%TO.N,GND*%
X68555000Y-64250000D03*
D18*
%TO.P,J2,S1,SHIELD*%
X69470000Y-65320000D03*
D19*
X73650000Y-65320000D03*
D18*
X69470000Y-56680000D03*
D19*
X73650000Y-56680000D03*
%TD*%
D20*
%TO.P,reset1,1,1*%
%TO.N,GND*%
X68700000Y-43000000D03*
X75000000Y-43000000D03*
%TO.P,reset1,2,2*%
%TO.N,Net-(U3-EN{slash}CHIP_PU)*%
X68700000Y-46800000D03*
X75000000Y-46800000D03*
%TD*%
D21*
%TO.P,J1,1,Pin_1*%
%TO.N,Net-(J1-Pin_1)*%
X70000000Y-93000000D03*
D22*
%TO.P,J1,2,Pin_2*%
%TO.N,GND*%
X70000000Y-95540000D03*
%TD*%
D23*
%TO.P,C3,1*%
%TO.N,+3V3*%
X95000000Y-68950000D03*
%TO.P,C3,2*%
%TO.N,GND*%
X95000000Y-67050000D03*
%TD*%
D24*
%TO.P,R2,1*%
%TO.N,Net-(J2-CC2)*%
X83000000Y-58962500D03*
%TO.P,R2,2*%
%TO.N,GND*%
X83000000Y-57137500D03*
%TD*%
D25*
%TO.P,R5,1*%
%TO.N,Net-(U3-GPIO9)*%
X69087500Y-27000000D03*
%TO.P,R5,2*%
%TO.N,+3V3*%
X70912500Y-27000000D03*
%TD*%
D20*
%TO.P,boot1,1,1*%
%TO.N,GND*%
X68700000Y-35950000D03*
X75000000Y-35950000D03*
%TO.P,boot1,2,2*%
%TO.N,Net-(U3-GPIO9)*%
X68700000Y-39750000D03*
X75000000Y-39750000D03*
%TD*%
D26*
%TO.P,U2,1,V_{DD}*%
%TO.N,Net-(J2-VBUS-PadA4)*%
X91137500Y-62950000D03*
%TO.P,U2,2,V_{DD}*%
X91137500Y-62000000D03*
%TO.P,U2,3,V_{BAT}*%
%TO.N,Net-(J1-Pin_1)*%
X91137500Y-61050000D03*
%TO.P,U2,4,V_{BAT}*%
X88862500Y-61050000D03*
%TO.P,U2,5,STAT*%
%TO.N,unconnected-(U2-STAT-Pad5)*%
X88862500Y-62950000D03*
%TD*%
D21*
%TO.P,E-ink_display1,1,Pin_1*%
%TO.N,+3V3*%
X114250000Y-43710000D03*
D22*
%TO.P,E-ink_display1,2,Pin_2*%
%TO.N,GND*%
X114250000Y-46250000D03*
%TO.P,E-ink_display1,3,Pin_3*%
%TO.N,Net-(E-ink_display1-Pin_3)*%
X114250000Y-48790000D03*
%TO.P,E-ink_display1,4,Pin_4*%
%TO.N,Net-(E-ink_display1-Pin_4)*%
X114250000Y-51330000D03*
%TO.P,E-ink_display1,5,Pin_5*%
%TO.N,Net-(E-ink_display1-Pin_5)*%
X114250000Y-53870000D03*
%TO.P,E-ink_display1,6,Pin_6*%
%TO.N,Net-(E-ink_display1-Pin_6)*%
X114250000Y-56410000D03*
%TO.P,E-ink_display1,7,Pin_7*%
%TO.N,Net-(E-ink_display1-Pin_7)*%
X114250000Y-58950000D03*
%TO.P,E-ink_display1,8,Pin_8*%
%TO.N,Net-(E-ink_display1-Pin_8)*%
X114250000Y-61490000D03*
%TD*%
D26*
%TO.P,U1,1,VIN*%
%TO.N,Net-(J1-Pin_1)*%
X91275000Y-68900000D03*
%TO.P,U1,2,GND*%
%TO.N,GND*%
X91275000Y-67950000D03*
%TO.P,U1,3,EN*%
%TO.N,Net-(J1-Pin_1)*%
X91275000Y-67000000D03*
%TO.P,U1,4,NC*%
%TO.N,unconnected-(U1-NC-Pad4)*%
X89000000Y-67000000D03*
%TO.P,U1,5,VOUT*%
%TO.N,+3V3*%
X89000000Y-68900000D03*
%TD*%
D25*
%TO.P,R4,1*%
%TO.N,Net-(U3-EN{slash}CHIP_PU)*%
X78000000Y-45000000D03*
%TO.P,R4,2*%
%TO.N,+3V3*%
X79825000Y-45000000D03*
%TD*%
D10*
%TO.P,R3,1*%
%TO.N,Net-(U2-PROG)*%
X95912500Y-62000000D03*
%TO.P,R3,2*%
%TO.N,GND*%
X94087500Y-62000000D03*
%TD*%
D27*
%TO.P,C2,1*%
%TO.N,GND*%
X89050000Y-57000000D03*
%TO.P,C2,2*%
%TO.N,Net-(J1-Pin_1)*%
X90950000Y-57000000D03*
%TD*%
D28*
%TO.P,C1,1*%
%TO.N,Net-(J1-Pin_1)*%
X88000000Y-53000000D03*
%TO.P,C1,2*%
%TO.N,GND*%
X86100000Y-53000000D03*
%TD*%
D29*
%TO.N,GND*%
X75000000Y-43000000D03*
X68555000Y-64250000D03*
X98000000Y-42000000D03*
X68700000Y-35950000D03*
X68500000Y-57750000D03*
X71500000Y-53000000D03*
X75000000Y-36000000D03*
X68700000Y-43000000D03*
%TO.N,Net-(J1-Pin_1)*%
X91275000Y-68900000D03*
X93750000Y-60750000D03*
%TO.N,+3V3*%
X89000000Y-68900000D03*
X80000000Y-45000000D03*
X85750000Y-34650000D03*
X94499000Y-69501000D03*
%TO.N,Net-(E-ink_display1-Pin_4)*%
X91975000Y-41950000D03*
%TO.N,Net-(E-ink_display1-Pin_3)*%
X93575000Y-41950000D03*
%TO.N,Net-(J2-CC2)*%
X71250000Y-57500000D03*
X70000000Y-60000000D03*
%TO.N,Net-(J2-CC1)*%
X70000000Y-61750000D03*
X72750000Y-61000000D03*
%TD*%
D30*
%TO.N,Net-(U3-GPIO9)*%
X96274000Y-42651000D02*
X98576000Y-42651000D01*
X67952000Y-33250000D02*
X69851000Y-35149000D01*
X67601000Y-28298000D02*
X67601000Y-33250000D01*
X98676000Y-42551000D02*
X98676000Y-26008164D01*
X69851000Y-38599000D02*
X68700000Y-39750000D01*
X98576000Y-42651000D02*
X98676000Y-42551000D01*
X68188500Y-27899000D02*
X68000000Y-27899000D01*
X67601000Y-33250000D02*
X67952000Y-33250000D01*
X98676000Y-26008164D02*
X98417836Y-25750000D01*
X69087500Y-27000000D02*
X68188500Y-27899000D01*
X69851000Y-35149000D02*
X69851000Y-38599000D01*
X70337500Y-25750000D02*
X69087500Y-27000000D01*
X98417836Y-25750000D02*
X70337500Y-25750000D01*
X95975000Y-42352000D02*
X96274000Y-42651000D01*
X68700000Y-39750000D02*
X75000000Y-39750000D01*
X68000000Y-27899000D02*
X67601000Y-28298000D01*
X95975000Y-41950000D02*
X95975000Y-42352000D01*
%TO.N,GND*%
X86025000Y-32100000D02*
X86025000Y-33800000D01*
X89050000Y-56962500D02*
X86100000Y-54012500D01*
X88775000Y-41950000D02*
X88775000Y-40250000D01*
X86676000Y-42651000D02*
X86025000Y-42000000D01*
X81999000Y-59499000D02*
X82750000Y-60250000D01*
X94087500Y-66137500D02*
X94087500Y-62000000D01*
X91975000Y-35075000D02*
X91975000Y-32150000D01*
X93950000Y-39025000D02*
X93950000Y-35075000D01*
X91975000Y-32150000D02*
X97875000Y-32150000D01*
X91975000Y-32150000D02*
X86075000Y-32150000D01*
X86075000Y-41950000D02*
X86025000Y-42000000D01*
X86100000Y-54012500D02*
X86100000Y-53000000D01*
X88775000Y-40250000D02*
X90000000Y-39025000D01*
X85800000Y-60250000D02*
X89050000Y-57000000D01*
X90000000Y-39025000D02*
X90000000Y-37050000D01*
X82750000Y-60250000D02*
X85800000Y-60250000D01*
X81999000Y-58138500D02*
X81999000Y-59499000D01*
X88476000Y-42651000D02*
X86750000Y-42651000D01*
X95000000Y-67050000D02*
X94087500Y-66137500D01*
X90000000Y-39025000D02*
X93950000Y-39025000D01*
X89050000Y-57000000D02*
X89050000Y-56962500D01*
X86075000Y-41050000D02*
X86075000Y-41950000D01*
X86100000Y-43301000D02*
X86100000Y-53000000D01*
X86075000Y-32150000D02*
X86025000Y-32100000D01*
X83000000Y-57137500D02*
X74107500Y-57137500D01*
X83000000Y-57137500D02*
X81999000Y-58138500D01*
X97875000Y-32150000D02*
X97925000Y-32100000D01*
X93950000Y-35075000D02*
X90000000Y-35075000D01*
X94087500Y-62000000D02*
X86100000Y-54012500D01*
X86750000Y-42651000D02*
X86676000Y-42651000D01*
X86100000Y-53000000D02*
X86100000Y-54037500D01*
X90000000Y-37050000D02*
X91975000Y-37050000D01*
X88775000Y-42352000D02*
X88476000Y-42651000D01*
X91275000Y-67950000D02*
X94100000Y-67950000D01*
X74107500Y-57137500D02*
X73650000Y-56680000D01*
X94100000Y-67950000D02*
X95000000Y-67050000D01*
X86750000Y-42651000D02*
X86100000Y-43301000D01*
X88775000Y-41950000D02*
X88775000Y-42352000D01*
X86025000Y-33800000D02*
X86075000Y-33850000D01*
%TO.N,Net-(J1-Pin_1)*%
X91137500Y-61050000D02*
X88862500Y-61050000D01*
X90920532Y-67000000D02*
X90311500Y-67609032D01*
X90950000Y-57000000D02*
X90950000Y-55950000D01*
X93750000Y-60750000D02*
X90950000Y-57950000D01*
X90311500Y-67609032D02*
X90311500Y-68290968D01*
X92101000Y-66174000D02*
X92101000Y-61659032D01*
X91275000Y-67000000D02*
X90920532Y-67000000D01*
X92101000Y-61659032D02*
X91491968Y-61050000D01*
X91275000Y-67000000D02*
X92101000Y-66174000D01*
X90950000Y-57950000D02*
X90950000Y-57000000D01*
X90950000Y-55950000D02*
X88000000Y-53000000D01*
X90311500Y-68290968D02*
X90920532Y-68900000D01*
X91491968Y-61050000D02*
X91137500Y-61050000D01*
X90920532Y-68900000D02*
X91275000Y-68900000D01*
%TO.N,+3V3*%
X85250000Y-33750000D02*
X78500000Y-27000000D01*
X86075000Y-34650000D02*
X85750000Y-34650000D01*
X78500000Y-27000000D02*
X70912500Y-27000000D01*
X85750000Y-34650000D02*
X85673000Y-34650000D01*
X94499000Y-69501000D02*
X94499000Y-69451000D01*
X85250000Y-34227000D02*
X85250000Y-33750000D01*
X85673000Y-34650000D02*
X85250000Y-34227000D01*
X94499000Y-69451000D02*
X95000000Y-68950000D01*
%TO.N,Net-(E-ink_display1-Pin_8)*%
X92775000Y-41950000D02*
X92775000Y-42275000D01*
X112260000Y-59500000D02*
X114250000Y-61490000D01*
X92775000Y-42275000D02*
X110000000Y-59500000D01*
X110000000Y-59500000D02*
X112260000Y-59500000D01*
%TO.N,Net-(E-ink_display1-Pin_5)*%
X115401000Y-56886760D02*
X115401000Y-55021000D01*
X94375000Y-42375000D02*
X109561000Y-57561000D01*
X94375000Y-41950000D02*
X94375000Y-42375000D01*
X114726760Y-57561000D02*
X115401000Y-56886760D01*
X109561000Y-57561000D02*
X114726760Y-57561000D01*
X115401000Y-55021000D02*
X114250000Y-53870000D01*
%TO.N,Net-(E-ink_display1-Pin_7)*%
X110466000Y-62641000D02*
X114726760Y-62641000D01*
X115401000Y-61966760D02*
X115401000Y-60101000D01*
X114726760Y-62641000D02*
X115401000Y-61966760D01*
X90375000Y-41950000D02*
X90375000Y-42550000D01*
X115401000Y-60101000D02*
X114250000Y-58950000D01*
X90375000Y-42550000D02*
X110466000Y-62641000D01*
%TO.N,Net-(E-ink_display1-Pin_6)*%
X96375000Y-43750000D02*
X101590000Y-43750000D01*
X101590000Y-43750000D02*
X114250000Y-56410000D01*
X95175000Y-42550000D02*
X96375000Y-43750000D01*
X95175000Y-41950000D02*
X95175000Y-42550000D01*
%TO.N,Net-(J2-VBUS-PadA4)*%
X90536500Y-63551000D02*
X91137500Y-62950000D01*
X88159032Y-63551000D02*
X90536500Y-63551000D01*
X68555000Y-58550000D02*
X69399943Y-58550000D01*
X69399943Y-58550000D02*
X70601000Y-59751057D01*
X70601000Y-62181000D02*
X69332000Y-63450000D01*
X87822032Y-63214000D02*
X88159032Y-63551000D01*
X70601000Y-59751057D02*
X70601000Y-62181000D01*
X68791000Y-63214000D02*
X87822032Y-63214000D01*
X91137500Y-62950000D02*
X91137500Y-62000000D01*
X69332000Y-63450000D02*
X68555000Y-63450000D01*
X68555000Y-63450000D02*
X68791000Y-63214000D01*
%TO.N,Net-(J2-CC2)*%
X73499000Y-51999000D02*
X77824000Y-56324000D01*
X70000000Y-60000000D02*
X69581000Y-59581000D01*
X71250000Y-57500000D02*
X72148000Y-56602000D01*
X69250000Y-59250000D02*
X68555000Y-59250000D01*
X83685160Y-56324000D02*
X84001000Y-56639840D01*
X69581000Y-59299000D02*
X69299000Y-59299000D01*
X69299000Y-59299000D02*
X69250000Y-59250000D01*
X77824000Y-56324000D02*
X83685160Y-56324000D01*
X72148000Y-56602000D02*
X72148000Y-52353340D01*
X84001000Y-56639840D02*
X84001000Y-57961500D01*
X69581000Y-59581000D02*
X69581000Y-59299000D01*
X72502340Y-51999000D02*
X73499000Y-51999000D01*
X72148000Y-52353340D02*
X72502340Y-51999000D01*
X84001000Y-57961500D02*
X83000000Y-58962500D01*
%TO.N,Net-(J2-CC1)*%
X72549000Y-59000000D02*
X72549000Y-53451000D01*
X72549000Y-53451000D02*
X73000000Y-53000000D01*
X69500000Y-62250000D02*
X68555000Y-62250000D01*
X70000000Y-61750000D02*
X69500000Y-62250000D01*
X72750000Y-59201000D02*
X72549000Y-59000000D01*
X72750000Y-61000000D02*
X72750000Y-59201000D01*
%TO.N,Net-(U3-EN{slash}CHIP_PU)*%
X75000000Y-46800000D02*
X76200000Y-46800000D01*
X76200000Y-46800000D02*
X78000000Y-45000000D01*
X83150000Y-38650000D02*
X86075000Y-38650000D01*
X68700000Y-46800000D02*
X75000000Y-46800000D01*
X75000000Y-46800000D02*
X83150000Y-38650000D01*
%TD*%
D31*
X75000000Y-43000000D03*
X68555000Y-64250000D03*
X98000000Y-42000000D03*
X68700000Y-35950000D03*
X68500000Y-57750000D03*
X71500000Y-53000000D03*
X75000000Y-36000000D03*
X68700000Y-43000000D03*
X91275000Y-68900000D03*
X93750000Y-60750000D03*
X89000000Y-68900000D03*
X80000000Y-45000000D03*
X85750000Y-34650000D03*
X94499000Y-69501000D03*
X91975000Y-41950000D03*
X93575000Y-41950000D03*
X71250000Y-57500000D03*
X70000000Y-60000000D03*
X70000000Y-61750000D03*
X72750000Y-61000000D03*
D32*
X70000000Y-63890000D03*
X70000000Y-58110000D03*
D33*
X69470000Y-65320000D03*
D34*
X73650000Y-65320000D03*
D33*
X69470000Y-56680000D03*
D34*
X73650000Y-56680000D03*
D32*
X70000000Y-93000000D03*
X70000000Y-95540000D03*
X114250000Y-43710000D03*
X114250000Y-46250000D03*
X114250000Y-48790000D03*
X114250000Y-51330000D03*
X114250000Y-53870000D03*
X114250000Y-56410000D03*
X114250000Y-58950000D03*
X114250000Y-61490000D03*
M02*
