M48
; DRILL file {KiCad 9.0.6} date 2026-07-21T02:03:06+0530
; FORMAT={-:-/ absolute / metric / decimal}
; #@! TF.CreationDate,2026-07-21T02:03:06+05:30
; #@! TF.GenerationSoftware,Kicad,Pcbnew,9.0.6
; #@! TF.FileFunction,MixedPlating,1,2
FMAT,2
METRIC
; #@! TA.AperFunction,Plated,PTH,ViaDrill
T1C0.300
; #@! TA.AperFunction,Plated,PTH,ComponentDrill
T2C0.600
; #@! TA.AperFunction,Plated,PTH,ComponentDrill
T3C1.000
; #@! TA.AperFunction,NonPlated,NPTH,ComponentDrill
T4C0.650
%
G90
G05
T1
X68.5Y-57.75
X68.555Y-64.25
X68.7Y-35.95
X68.7Y-43.0
X70.0Y-60.0
X70.0Y-61.75
X71.25Y-57.5
X71.5Y-53.0
X72.75Y-61.0
X75.0Y-36.0
X75.0Y-43.0
X80.0Y-45.0
X85.75Y-34.65
X89.0Y-68.9
X91.275Y-68.9
X91.975Y-41.95
X93.575Y-41.95
X93.75Y-60.75
X94.499Y-69.501
X98.0Y-42.0
T3
X70.0Y-93.0
X70.0Y-95.54
X114.25Y-43.71
X114.25Y-46.25
X114.25Y-48.79
X114.25Y-51.33
X114.25Y-53.87
X114.25Y-56.41
X114.25Y-58.95
X114.25Y-61.49
T4
X70.0Y-58.11
X70.0Y-63.89
T2
X68.92Y-56.68G85X70.02Y-56.68
G05
X68.92Y-65.32G85X70.02Y-65.32
G05
X73.35Y-56.68G85X73.95Y-56.68
G05
X73.35Y-65.32G85X73.95Y-65.32
G05
M30
